solid nxt_leg
   facet normal 0.000000e+000 0.000000e+000 -1.000000e+000
      outer loop
         vertex -4.630000e+002 2.815000e+002 0.000000e+000
         vertex 1.000000e+002 2.815000e+002 0.000000e+000
         vertex -4.630000e+002 -2.815000e+002 0.000000e+000
      endloop
   endfacet
   facet normal 0.000000e+000 0.000000e+000 -1.000000e+000
      outer loop
         vertex -4.630000e+002 -2.815000e+002 0.000000e+000
         vertex 1.000000e+002 2.815000e+002 0.000000e+000
         vertex 1.000000e+002 -2.815000e+002 0.000000e+000
      endloop
   endfacet
   facet normal -1.000000e+000 0.000000e+000 -6.819552e-017
      outer loop
         vertex -4.630000e+002 1.310000e+002 5.140000e+002
         vertex -4.630000e+002 2.815000e+002 5.140000e+002
         vertex -4.630000e+002 2.815000e+002 0.000000e+000
      endloop
   endfacet
   facet normal -1.000000e+000 0.000000e+000 -6.819552e-017
      outer loop
         vertex -4.630000e+002 -2.815000e+002 0.000000e+000
         vertex -4.630000e+002 -2.815000e+002 5.140000e+002
         vertex -4.630000e+002 -1.310000e+002 5.140000e+002
      endloop
   endfacet
   facet normal -1.000000e+000 0.000000e+000 -6.819552e-017
      outer loop
         vertex -4.630000e+002 -1.310000e+002 6.090000e+002
         vertex -4.630000e+002 1.310000e+002 6.090000e+002
         vertex -4.630000e+002 -1.310000e+002 5.140000e+002
      endloop
   endfacet
   facet normal -1.000000e+000 0.000000e+000 -6.819552e-017
      outer loop
         vertex -4.630000e+002 -1.310000e+002 5.140000e+002
         vertex -4.630000e+002 1.310000e+002 6.090000e+002
         vertex -4.630000e+002 1.310000e+002 5.140000e+002
      endloop
   endfacet
   facet normal -1.000000e+000 0.000000e+000 -6.819552e-017
      outer loop
         vertex -4.630000e+002 -1.310000e+002 5.140000e+002
         vertex -4.630000e+002 1.310000e+002 5.140000e+002
         vertex -4.630000e+002 -2.815000e+002 0.000000e+000
      endloop
   endfacet
   facet normal -1.000000e+000 0.000000e+000 -6.819552e-017
      outer loop
         vertex -4.630000e+002 -2.815000e+002 0.000000e+000
         vertex -4.630000e+002 1.310000e+002 5.140000e+002
         vertex -4.630000e+002 2.815000e+002 0.000000e+000
      endloop
   endfacet
   facet normal 0.000000e+000 0.000000e+000 1.000000e+000
      outer loop
         vertex -2.600000e+002 -1.310000e+002 8.140000e+002
         vertex -4.213245e+001 -3.535332e+001 8.140000e+002
         vertex -4.763140e+001 -2.750000e+001 8.140000e+002
      endloop
   endfacet
   facet normal 0.000000e+000 0.000000e+000 1.000000e+000
      outer loop
         vertex -4.763140e+001 -2.750000e+001 8.140000e+002
         vertex -5.168309e+001 -1.881111e+001 8.140000e+002
         vertex -2.600000e+002 -1.310000e+002 8.140000e+002
      endloop
   endfacet
   facet normal 0.000000e+000 0.000000e+000 1.000000e+000
      outer loop
         vertex -2.600000e+002 -1.310000e+002 8.140000e+002
         vertex -5.168309e+001 -1.881111e+001 8.140000e+002
         vertex -5.416443e+001 -9.550650e+000 8.140000e+002
      endloop
   endfacet
   facet normal 0.000000e+000 0.000000e+000 1.000000e+000
      outer loop
         vertex -2.600000e+002 -1.310000e+002 8.140000e+002
         vertex -5.416443e+001 -9.550650e+000 8.140000e+002
         vertex -2.600000e+002 1.310000e+002 8.140000e+002
      endloop
   endfacet
   facet normal 0.000000e+000 0.000000e+000 1.000000e+000
      outer loop
         vertex -2.600000e+002 1.310000e+002 8.140000e+002
         vertex -5.416443e+001 -9.550650e+000 8.140000e+002
         vertex -5.500000e+001 0.000000e+000 8.140000e+002
      endloop
   endfacet
   facet normal 0.000000e+000 0.000000e+000 1.000000e+000
      outer loop
         vertex -5.500000e+001 0.000000e+000 8.140000e+002
         vertex -5.416443e+001 9.550650e+000 8.140000e+002
         vertex -2.600000e+002 1.310000e+002 8.140000e+002
      endloop
   endfacet
   facet normal 0.000000e+000 0.000000e+000 1.000000e+000
      outer loop
         vertex -2.600000e+002 1.310000e+002 8.140000e+002
         vertex -5.416443e+001 9.550650e+000 8.140000e+002
         vertex -5.168309e+001 1.881111e+001 8.140000e+002
      endloop
   endfacet
   facet normal 0.000000e+000 0.000000e+000 1.000000e+000
      outer loop
         vertex -2.600000e+002 1.310000e+002 8.140000e+002
         vertex -5.168309e+001 1.881111e+001 8.140000e+002
         vertex -4.763140e+001 2.750000e+001 8.140000e+002
      endloop
   endfacet
   facet normal 0.000000e+000 0.000000e+000 1.000000e+000
      outer loop
         vertex 5.416443e+001 -9.550650e+000 8.140000e+002
         vertex 1.000000e+002 -1.310000e+002 8.140000e+002
         vertex 5.500000e+001 0.000000e+000 8.140000e+002
      endloop
   endfacet
   facet normal 0.000000e+000 0.000000e+000 1.000000e+000
      outer loop
         vertex 5.500000e+001 0.000000e+000 8.140000e+002
         vertex 1.000000e+002 -1.310000e+002 8.140000e+002
         vertex 1.000000e+002 1.310000e+002 8.140000e+002
      endloop
   endfacet
   facet normal 0.000000e+000 0.000000e+000 1.000000e+000
      outer loop
         vertex 5.416443e+001 -9.550650e+000 8.140000e+002
         vertex 5.168309e+001 -1.881111e+001 8.140000e+002
         vertex 1.000000e+002 -1.310000e+002 8.140000e+002
      endloop
   endfacet
   facet normal 0.000000e+000 0.000000e+000 1.000000e+000
      outer loop
         vertex 1.000000e+002 -1.310000e+002 8.140000e+002
         vertex 5.168309e+001 -1.881111e+001 8.140000e+002
         vertex 4.763140e+001 -2.750000e+001 8.140000e+002
      endloop
   endfacet
   facet normal 0.000000e+000 0.000000e+000 1.000000e+000
      outer loop
         vertex 1.000000e+002 -1.310000e+002 8.140000e+002
         vertex 4.763140e+001 -2.750000e+001 8.140000e+002
         vertex 4.213245e+001 -3.535332e+001 8.140000e+002
      endloop
   endfacet
   facet normal 0.000000e+000 0.000000e+000 1.000000e+000
      outer loop
         vertex 4.213245e+001 -3.535332e+001 8.140000e+002
         vertex 3.535332e+001 -4.213245e+001 8.140000e+002
         vertex 1.000000e+002 -1.310000e+002 8.140000e+002
      endloop
   endfacet
   facet normal 0.000000e+000 0.000000e+000 1.000000e+000
      outer loop
         vertex 1.000000e+002 -1.310000e+002 8.140000e+002
         vertex 3.535332e+001 -4.213245e+001 8.140000e+002
         vertex 2.750000e+001 -4.763140e+001 8.140000e+002
      endloop
   endfacet
   facet normal 0.000000e+000 0.000000e+000 1.000000e+000
      outer loop
         vertex 1.000000e+002 -1.310000e+002 8.140000e+002
         vertex 2.750000e+001 -4.763140e+001 8.140000e+002
         vertex 1.881111e+001 -5.168309e+001 8.140000e+002
      endloop
   endfacet
   facet normal 0.000000e+000 0.000000e+000 1.000000e+000
      outer loop
         vertex -1.881111e+001 -5.168309e+001 8.140000e+002
         vertex -2.750000e+001 -4.763140e+001 8.140000e+002
         vertex -2.600000e+002 -1.310000e+002 8.140000e+002
      endloop
   endfacet
   facet normal 0.000000e+000 0.000000e+000 1.000000e+000
      outer loop
         vertex -2.600000e+002 -1.310000e+002 8.140000e+002
         vertex -2.750000e+001 -4.763140e+001 8.140000e+002
         vertex -3.535332e+001 -4.213245e+001 8.140000e+002
      endloop
   endfacet
   facet normal 0.000000e+000 0.000000e+000 1.000000e+000
      outer loop
         vertex -2.600000e+002 -1.310000e+002 8.140000e+002
         vertex -3.535332e+001 -4.213245e+001 8.140000e+002
         vertex -4.213245e+001 -3.535332e+001 8.140000e+002
      endloop
   endfacet
   facet normal 0.000000e+000 0.000000e+000 1.000000e+000
      outer loop
         vertex 0.000000e+000 5.500000e+001 8.140000e+002
         vertex 1.000000e+002 1.310000e+002 8.140000e+002
         vertex -9.550650e+000 5.416443e+001 8.140000e+002
      endloop
   endfacet
   facet normal 0.000000e+000 0.000000e+000 1.000000e+000
      outer loop
         vertex -9.550650e+000 5.416443e+001 8.140000e+002
         vertex 1.000000e+002 1.310000e+002 8.140000e+002
         vertex -2.600000e+002 1.310000e+002 8.140000e+002
      endloop
   endfacet
   facet normal 0.000000e+000 0.000000e+000 1.000000e+000
      outer loop
         vertex -9.550650e+000 5.416443e+001 8.140000e+002
         vertex -2.600000e+002 1.310000e+002 8.140000e+002
         vertex -1.881111e+001 5.168309e+001 8.140000e+002
      endloop
   endfacet
   facet normal 0.000000e+000 0.000000e+000 1.000000e+000
      outer loop
         vertex -1.881111e+001 5.168309e+001 8.140000e+002
         vertex -2.600000e+002 1.310000e+002 8.140000e+002
         vertex -2.750000e+001 4.763140e+001 8.140000e+002
      endloop
   endfacet
   facet normal 0.000000e+000 0.000000e+000 1.000000e+000
      outer loop
         vertex 0.000000e+000 5.500000e+001 8.140000e+002
         vertex 9.550650e+000 5.416443e+001 8.140000e+002
         vertex 1.000000e+002 1.310000e+002 8.140000e+002
      endloop
   endfacet
   facet normal 0.000000e+000 0.000000e+000 1.000000e+000
      outer loop
         vertex 1.000000e+002 1.310000e+002 8.140000e+002
         vertex 9.550650e+000 5.416443e+001 8.140000e+002
         vertex 1.881111e+001 5.168309e+001 8.140000e+002
      endloop
   endfacet
   facet normal 0.000000e+000 0.000000e+000 1.000000e+000
      outer loop
         vertex 1.000000e+002 1.310000e+002 8.140000e+002
         vertex 1.881111e+001 5.168309e+001 8.140000e+002
         vertex 2.750000e+001 4.763140e+001 8.140000e+002
      endloop
   endfacet
   facet normal 0.000000e+000 0.000000e+000 1.000000e+000
      outer loop
         vertex 2.750000e+001 4.763140e+001 8.140000e+002
         vertex 3.535332e+001 4.213245e+001 8.140000e+002
         vertex 1.000000e+002 1.310000e+002 8.140000e+002
      endloop
   endfacet
   facet normal 0.000000e+000 0.000000e+000 1.000000e+000
      outer loop
         vertex 1.000000e+002 1.310000e+002 8.140000e+002
         vertex 3.535332e+001 4.213245e+001 8.140000e+002
         vertex 4.213245e+001 3.535332e+001 8.140000e+002
      endloop
   endfacet
   facet normal 0.000000e+000 0.000000e+000 1.000000e+000
      outer loop
         vertex 1.000000e+002 1.310000e+002 8.140000e+002
         vertex 4.213245e+001 3.535332e+001 8.140000e+002
         vertex 4.763140e+001 2.750000e+001 8.140000e+002
      endloop
   endfacet
   facet normal 0.000000e+000 0.000000e+000 1.000000e+000
      outer loop
         vertex 4.763140e+001 2.750000e+001 8.140000e+002
         vertex 5.168309e+001 1.881111e+001 8.140000e+002
         vertex 1.000000e+002 1.310000e+002 8.140000e+002
      endloop
   endfacet
   facet normal 0.000000e+000 0.000000e+000 1.000000e+000
      outer loop
         vertex 1.000000e+002 1.310000e+002 8.140000e+002
         vertex 5.168309e+001 1.881111e+001 8.140000e+002
         vertex 5.416443e+001 9.550650e+000 8.140000e+002
      endloop
   endfacet
   facet normal 0.000000e+000 0.000000e+000 1.000000e+000
      outer loop
         vertex 1.000000e+002 1.310000e+002 8.140000e+002
         vertex 5.416443e+001 9.550650e+000 8.140000e+002
         vertex 5.500000e+001 0.000000e+000 8.140000e+002
      endloop
   endfacet
   facet normal 0.000000e+000 0.000000e+000 1.000000e+000
      outer loop
         vertex 1.881111e+001 -5.168309e+001 8.140000e+002
         vertex 9.550650e+000 -5.416443e+001 8.140000e+002
         vertex 1.000000e+002 -1.310000e+002 8.140000e+002
      endloop
   endfacet
   facet normal 0.000000e+000 0.000000e+000 1.000000e+000
      outer loop
         vertex 1.000000e+002 -1.310000e+002 8.140000e+002
         vertex 9.550650e+000 -5.416443e+001 8.140000e+002
         vertex 1.387779e-014 -5.500000e+001 8.140000e+002
      endloop
   endfacet
   facet normal 0.000000e+000 0.000000e+000 1.000000e+000
      outer loop
         vertex 1.000000e+002 -1.310000e+002 8.140000e+002
         vertex 1.387779e-014 -5.500000e+001 8.140000e+002
         vertex -2.600000e+002 -1.310000e+002 8.140000e+002
      endloop
   endfacet
   facet normal 0.000000e+000 0.000000e+000 1.000000e+000
      outer loop
         vertex -2.600000e+002 -1.310000e+002 8.140000e+002
         vertex 1.387779e-014 -5.500000e+001 8.140000e+002
         vertex -9.550650e+000 -5.416443e+001 8.140000e+002
      endloop
   endfacet
   facet normal 0.000000e+000 0.000000e+000 1.000000e+000
      outer loop
         vertex -2.600000e+002 -1.310000e+002 8.140000e+002
         vertex -9.550650e+000 -5.416443e+001 8.140000e+002
         vertex -1.881111e+001 -5.168309e+001 8.140000e+002
      endloop
   endfacet
   facet normal 0.000000e+000 0.000000e+000 1.000000e+000
      outer loop
         vertex -4.763140e+001 2.750000e+001 8.140000e+002
         vertex -4.213245e+001 3.535332e+001 8.140000e+002
         vertex -2.600000e+002 1.310000e+002 8.140000e+002
      endloop
   endfacet
   facet normal 0.000000e+000 0.000000e+000 1.000000e+000
      outer loop
         vertex -2.600000e+002 1.310000e+002 8.140000e+002
         vertex -4.213245e+001 3.535332e+001 8.140000e+002
         vertex -3.535332e+001 4.213245e+001 8.140000e+002
      endloop
   endfacet
   facet normal 0.000000e+000 0.000000e+000 1.000000e+000
      outer loop
         vertex -2.600000e+002 1.310000e+002 8.140000e+002
         vertex -3.535332e+001 4.213245e+001 8.140000e+002
         vertex -2.750000e+001 4.763140e+001 8.140000e+002
      endloop
   endfacet
   facet normal 1.000000e+000 0.000000e+000 0.000000e+000
      outer loop
         vertex 1.000000e+002 -1.310000e+002 5.140000e+002
         vertex 1.000000e+002 -2.815000e+002 5.140000e+002
         vertex 1.000000e+002 -2.815000e+002 0.000000e+000
      endloop
   endfacet
   facet normal 1.000000e+000 0.000000e+000 0.000000e+000
      outer loop
         vertex 1.000000e+002 2.815000e+002 0.000000e+000
         vertex 1.000000e+002 2.815000e+002 5.140000e+002
         vertex 1.000000e+002 1.310000e+002 5.140000e+002
      endloop
   endfacet
   facet normal 1.000000e+000 0.000000e+000 0.000000e+000
      outer loop
         vertex 1.000000e+002 1.310000e+002 8.140000e+002
         vertex 1.000000e+002 -1.310000e+002 8.140000e+002
         vertex 1.000000e+002 1.310000e+002 5.140000e+002
      endloop
   endfacet
   facet normal 1.000000e+000 0.000000e+000 0.000000e+000
      outer loop
         vertex 1.000000e+002 1.310000e+002 5.140000e+002
         vertex 1.000000e+002 -1.310000e+002 8.140000e+002
         vertex 1.000000e+002 -1.310000e+002 5.140000e+002
      endloop
   endfacet
   facet normal 1.000000e+000 0.000000e+000 0.000000e+000
      outer loop
         vertex 1.000000e+002 1.310000e+002 5.140000e+002
         vertex 1.000000e+002 -1.310000e+002 5.140000e+002
         vertex 1.000000e+002 2.815000e+002 0.000000e+000
      endloop
   endfacet
   facet normal 1.000000e+000 0.000000e+000 0.000000e+000
      outer loop
         vertex 1.000000e+002 2.815000e+002 0.000000e+000
         vertex 1.000000e+002 -1.310000e+002 5.140000e+002
         vertex 1.000000e+002 -2.815000e+002 0.000000e+000
      endloop
   endfacet
   facet normal 0.000000e+000 1.000000e+000 0.000000e+000
      outer loop
         vertex 1.000000e+002 2.815000e+002 5.140000e+002
         vertex 1.000000e+002 2.815000e+002 0.000000e+000
         vertex -4.630000e+002 2.815000e+002 5.140000e+002
      endloop
   endfacet
   facet normal 0.000000e+000 1.000000e+000 0.000000e+000
      outer loop
         vertex -4.630000e+002 2.815000e+002 5.140000e+002
         vertex 1.000000e+002 2.815000e+002 0.000000e+000
         vertex -4.630000e+002 2.815000e+002 0.000000e+000
      endloop
   endfacet
   facet normal 0.000000e+000 -1.000000e+000 0.000000e+000
      outer loop
         vertex -4.630000e+002 -2.815000e+002 0.000000e+000
         vertex 1.000000e+002 -2.815000e+002 0.000000e+000
         vertex -4.630000e+002 -2.815000e+002 5.140000e+002
      endloop
   endfacet
   facet normal 0.000000e+000 -1.000000e+000 0.000000e+000
      outer loop
         vertex -4.630000e+002 -2.815000e+002 5.140000e+002
         vertex 1.000000e+002 -2.815000e+002 0.000000e+000
         vertex 1.000000e+002 -2.815000e+002 5.140000e+002
      endloop
   endfacet
   facet normal 0.000000e+000 -1.000000e+000 -1.850372e-016
      outer loop
         vertex 1.000000e+002 -1.310000e+002 8.140000e+002
         vertex -2.600000e+002 -1.310000e+002 8.140000e+002
         vertex 1.000000e+002 -1.310000e+002 5.140000e+002
      endloop
   endfacet
   facet normal 0.000000e+000 -1.000000e+000 -1.850372e-016
      outer loop
         vertex 1.000000e+002 -1.310000e+002 5.140000e+002
         vertex -2.600000e+002 -1.310000e+002 8.140000e+002
         vertex -4.630000e+002 -1.310000e+002 6.090000e+002
      endloop
   endfacet
   facet normal 0.000000e+000 -1.000000e+000 -1.850372e-016
      outer loop
         vertex 1.000000e+002 -1.310000e+002 5.140000e+002
         vertex -4.630000e+002 -1.310000e+002 6.090000e+002
         vertex -4.630000e+002 -1.310000e+002 5.140000e+002
      endloop
   endfacet
   facet normal 0.000000e+000 0.000000e+000 1.000000e+000
      outer loop
         vertex -4.630000e+002 -1.310000e+002 5.140000e+002
         vertex -4.630000e+002 -2.815000e+002 5.140000e+002
         vertex 1.000000e+002 -1.310000e+002 5.140000e+002
      endloop
   endfacet
   facet normal 0.000000e+000 0.000000e+000 1.000000e+000
      outer loop
         vertex 1.000000e+002 -1.310000e+002 5.140000e+002
         vertex -4.630000e+002 -2.815000e+002 5.140000e+002
         vertex 1.000000e+002 -2.815000e+002 5.140000e+002
      endloop
   endfacet
   facet normal 0.000000e+000 1.000000e+000 0.000000e+000
      outer loop
         vertex -2.600000e+002 1.310000e+002 8.140000e+002
         vertex 1.000000e+002 1.310000e+002 8.140000e+002
         vertex -4.630000e+002 1.310000e+002 6.090000e+002
      endloop
   endfacet
   facet normal 0.000000e+000 1.000000e+000 0.000000e+000
      outer loop
         vertex -4.630000e+002 1.310000e+002 6.090000e+002
         vertex 1.000000e+002 1.310000e+002 8.140000e+002
         vertex 1.000000e+002 1.310000e+002 5.140000e+002
      endloop
   endfacet
   facet normal 0.000000e+000 1.000000e+000 0.000000e+000
      outer loop
         vertex -4.630000e+002 1.310000e+002 6.090000e+002
         vertex 1.000000e+002 1.310000e+002 5.140000e+002
         vertex -4.630000e+002 1.310000e+002 5.140000e+002
      endloop
   endfacet
   facet normal 0.000000e+000 0.000000e+000 1.000000e+000
      outer loop
         vertex -4.630000e+002 2.815000e+002 5.140000e+002
         vertex -4.630000e+002 1.310000e+002 5.140000e+002
         vertex 1.000000e+002 2.815000e+002 5.140000e+002
      endloop
   endfacet
   facet normal 0.000000e+000 0.000000e+000 1.000000e+000
      outer loop
         vertex 1.000000e+002 2.815000e+002 5.140000e+002
         vertex -4.630000e+002 1.310000e+002 5.140000e+002
         vertex 1.000000e+002 1.310000e+002 5.140000e+002
      endloop
   endfacet
   facet normal -9.932307e-001 1.161583e-001 0.000000e+000
      outer loop
         vertex -5.500000e+001 0.000000e+000 8.140000e+002
         vertex -5.416443e+001 9.550650e+000 9.740000e+002
         vertex -5.416443e+001 9.550650e+000 8.140000e+002
      endloop
   endfacet
   facet normal -9.730600e-001 2.305519e-001 0.000000e+000
      outer loop
         vertex -5.416443e+001 9.550650e+000 8.140000e+002
         vertex -5.416443e+001 9.550650e+000 9.740000e+002
         vertex -5.168309e+001 1.881111e+001 9.740000e+002
      endloop
   endfacet
   facet normal -9.579706e-001 2.868663e-001 0.000000e+000
      outer loop
         vertex -5.416443e+001 9.550650e+000 8.140000e+002
         vertex -5.168309e+001 1.881111e+001 9.740000e+002
         vertex -5.168309e+001 1.881111e+001 8.140000e+002
      endloop
   endfacet
   facet normal -9.182422e-001 3.960194e-001 0.000000e+000
      outer loop
         vertex -5.168309e+001 1.881111e+001 8.140000e+002
         vertex -5.168309e+001 1.881111e+001 9.740000e+002
         vertex -4.763140e+001 2.750000e+001 9.740000e+002
      endloop
   endfacet
   facet normal -8.936031e-001 4.488580e-001 0.000000e+000
      outer loop
         vertex -5.168309e+001 1.881111e+001 8.140000e+002
         vertex -4.763140e+001 2.750000e+001 9.740000e+002
         vertex -4.763140e+001 2.750000e+001 8.140000e+002
      endloop
   endfacet
   facet normal -8.355240e-001 5.494540e-001 0.000000e+000
      outer loop
         vertex -4.763140e+001 2.750000e+001 8.140000e+002
         vertex -4.763140e+001 2.750000e+001 9.740000e+002
         vertex -4.213245e+001 3.535332e+001 9.740000e+002
      endloop
   endfacet
   facet normal -8.020838e-001 5.972114e-001 0.000000e+000
      outer loop
         vertex -4.763140e+001 2.750000e+001 8.140000e+002
         vertex -4.213245e+001 3.535332e+001 9.740000e+002
         vertex -4.213245e+001 3.535332e+001 8.140000e+002
      endloop
   endfacet
   facet normal -7.274188e-001 6.861938e-001 0.000000e+000
      outer loop
         vertex -4.213245e+001 3.535332e+001 8.140000e+002
         vertex -4.213245e+001 3.535332e+001 9.740000e+002
         vertex -3.535332e+001 4.213245e+001 9.740000e+002
      endloop
   endfacet
   facet normal -6.861938e-001 7.274188e-001 0.000000e+000
      outer loop
         vertex -4.213245e+001 3.535332e+001 8.140000e+002
         vertex -3.535332e+001 4.213245e+001 9.740000e+002
         vertex -3.535332e+001 4.213245e+001 8.140000e+002
      endloop
   endfacet
   facet normal -5.972114e-001 8.020838e-001 0.000000e+000
      outer loop
         vertex -3.535332e+001 4.213245e+001 8.140000e+002
         vertex -3.535332e+001 4.213245e+001 9.740000e+002
         vertex -2.750000e+001 4.763140e+001 9.740000e+002
      endloop
   endfacet
   facet normal -5.494540e-001 8.355240e-001 0.000000e+000
      outer loop
         vertex -3.535332e+001 4.213245e+001 8.140000e+002
         vertex -2.750000e+001 4.763140e+001 9.740000e+002
         vertex -2.750000e+001 4.763140e+001 8.140000e+002
      endloop
   endfacet
   facet normal -4.488580e-001 8.936031e-001 0.000000e+000
      outer loop
         vertex -2.750000e+001 4.763140e+001 8.140000e+002
         vertex -2.750000e+001 4.763140e+001 9.740000e+002
         vertex -1.881111e+001 5.168309e+001 9.740000e+002
      endloop
   endfacet
   facet normal -3.960194e-001 9.182422e-001 0.000000e+000
      outer loop
         vertex -2.750000e+001 4.763140e+001 8.140000e+002
         vertex -1.881111e+001 5.168309e+001 9.740000e+002
         vertex -1.881111e+001 5.168309e+001 8.140000e+002
      endloop
   endfacet
   facet normal -2.868663e-001 9.579706e-001 0.000000e+000
      outer loop
         vertex -1.881111e+001 5.168309e+001 8.140000e+002
         vertex -1.881111e+001 5.168309e+001 9.740000e+002
         vertex -9.550650e+000 5.416443e+001 9.740000e+002
      endloop
   endfacet
   facet normal -2.305519e-001 9.730600e-001 0.000000e+000
      outer loop
         vertex -1.881111e+001 5.168309e+001 8.140000e+002
         vertex -9.550650e+000 5.416443e+001 9.740000e+002
         vertex -9.550650e+000 5.416443e+001 8.140000e+002
      endloop
   endfacet
   facet normal -1.161583e-001 9.932307e-001 0.000000e+000
      outer loop
         vertex -9.550650e+000 5.416443e+001 8.140000e+002
         vertex -9.550650e+000 5.416443e+001 9.740000e+002
         vertex -3.367779e-015 5.500000e+001 9.740000e+002
      endloop
   endfacet
   facet normal -5.807913e-002 9.983119e-001 0.000000e+000
      outer loop
         vertex -9.550650e+000 5.416443e+001 8.140000e+002
         vertex -3.367779e-015 5.500000e+001 9.740000e+002
         vertex -3.367779e-015 5.500000e+001 8.140000e+002
      endloop
   endfacet
   facet normal 5.807913e-002 9.983119e-001 0.000000e+000
      outer loop
         vertex -3.367779e-015 5.500000e+001 8.140000e+002
         vertex -3.367779e-015 5.500000e+001 9.740000e+002
         vertex 9.550650e+000 5.416443e+001 9.740000e+002
      endloop
   endfacet
   facet normal 1.161583e-001 9.932307e-001 0.000000e+000
      outer loop
         vertex -3.367779e-015 5.500000e+001 8.140000e+002
         vertex 9.550650e+000 5.416443e+001 9.740000e+002
         vertex 9.550650e+000 5.416443e+001 8.140000e+002
      endloop
   endfacet
   facet normal 2.305519e-001 9.730600e-001 0.000000e+000
      outer loop
         vertex 9.550650e+000 5.416443e+001 8.140000e+002
         vertex 9.550650e+000 5.416443e+001 9.740000e+002
         vertex 1.881111e+001 5.168309e+001 9.740000e+002
      endloop
   endfacet
   facet normal 2.868663e-001 9.579706e-001 0.000000e+000
      outer loop
         vertex 9.550650e+000 5.416443e+001 8.140000e+002
         vertex 1.881111e+001 5.168309e+001 9.740000e+002
         vertex 1.881111e+001 5.168309e+001 8.140000e+002
      endloop
   endfacet
   facet normal 3.960194e-001 9.182422e-001 0.000000e+000
      outer loop
         vertex 1.881111e+001 5.168309e+001 8.140000e+002
         vertex 1.881111e+001 5.168309e+001 9.740000e+002
         vertex 2.750000e+001 4.763140e+001 9.740000e+002
      endloop
   endfacet
   facet normal 4.488580e-001 8.936031e-001 0.000000e+000
      outer loop
         vertex 1.881111e+001 5.168309e+001 8.140000e+002
         vertex 2.750000e+001 4.763140e+001 9.740000e+002
         vertex 2.750000e+001 4.763140e+001 8.140000e+002
      endloop
   endfacet
   facet normal 5.494540e-001 8.355240e-001 0.000000e+000
      outer loop
         vertex 2.750000e+001 4.763140e+001 8.140000e+002
         vertex 2.750000e+001 4.763140e+001 9.740000e+002
         vertex 3.535332e+001 4.213245e+001 9.740000e+002
      endloop
   endfacet
   facet normal 5.972114e-001 8.020838e-001 0.000000e+000
      outer loop
         vertex 2.750000e+001 4.763140e+001 8.140000e+002
         vertex 3.535332e+001 4.213245e+001 9.740000e+002
         vertex 3.535332e+001 4.213245e+001 8.140000e+002
      endloop
   endfacet
   facet normal 6.861938e-001 7.274188e-001 0.000000e+000
      outer loop
         vertex 3.535332e+001 4.213245e+001 8.140000e+002
         vertex 3.535332e+001 4.213245e+001 9.740000e+002
         vertex 4.213245e+001 3.535332e+001 9.740000e+002
      endloop
   endfacet
   facet normal 7.274188e-001 6.861938e-001 0.000000e+000
      outer loop
         vertex 3.535332e+001 4.213245e+001 8.140000e+002
         vertex 4.213245e+001 3.535332e+001 9.740000e+002
         vertex 4.213245e+001 3.535332e+001 8.140000e+002
      endloop
   endfacet
   facet normal 8.020838e-001 5.972114e-001 0.000000e+000
      outer loop
         vertex 4.213245e+001 3.535332e+001 8.140000e+002
         vertex 4.213245e+001 3.535332e+001 9.740000e+002
         vertex 4.763140e+001 2.750000e+001 9.740000e+002
      endloop
   endfacet
   facet normal 8.355240e-001 5.494540e-001 0.000000e+000
      outer loop
         vertex 4.213245e+001 3.535332e+001 8.140000e+002
         vertex 4.763140e+001 2.750000e+001 9.740000e+002
         vertex 4.763140e+001 2.750000e+001 8.140000e+002
      endloop
   endfacet
   facet normal 8.936031e-001 4.488580e-001 0.000000e+000
      outer loop
         vertex 4.763140e+001 2.750000e+001 8.140000e+002
         vertex 4.763140e+001 2.750000e+001 9.740000e+002
         vertex 5.168309e+001 1.881111e+001 9.740000e+002
      endloop
   endfacet
   facet normal 9.182422e-001 3.960194e-001 0.000000e+000
      outer loop
         vertex 4.763140e+001 2.750000e+001 8.140000e+002
         vertex 5.168309e+001 1.881111e+001 9.740000e+002
         vertex 5.168309e+001 1.881111e+001 8.140000e+002
      endloop
   endfacet
   facet normal 9.579706e-001 2.868663e-001 0.000000e+000
      outer loop
         vertex 5.168309e+001 1.881111e+001 8.140000e+002
         vertex 5.168309e+001 1.881111e+001 9.740000e+002
         vertex 5.416443e+001 9.550650e+000 9.740000e+002
      endloop
   endfacet
   facet normal 9.730600e-001 2.305519e-001 0.000000e+000
      outer loop
         vertex 5.168309e+001 1.881111e+001 8.140000e+002
         vertex 5.416443e+001 9.550650e+000 9.740000e+002
         vertex 5.416443e+001 9.550650e+000 8.140000e+002
      endloop
   endfacet
   facet normal 9.932307e-001 1.161583e-001 0.000000e+000
      outer loop
         vertex 5.416443e+001 9.550650e+000 8.140000e+002
         vertex 5.416443e+001 9.550650e+000 9.740000e+002
         vertex 5.500000e+001 6.735557e-015 9.740000e+002
      endloop
   endfacet
   facet normal 9.983119e-001 5.807913e-002 0.000000e+000
      outer loop
         vertex 5.416443e+001 9.550650e+000 8.140000e+002
         vertex 5.500000e+001 6.735557e-015 9.740000e+002
         vertex 5.500000e+001 6.735557e-015 8.140000e+002
      endloop
   endfacet
   facet normal 9.983119e-001 -5.807913e-002 0.000000e+000
      outer loop
         vertex 5.500000e+001 6.735557e-015 8.140000e+002
         vertex 5.500000e+001 6.735557e-015 9.740000e+002
         vertex 5.416443e+001 -9.550650e+000 9.740000e+002
      endloop
   endfacet
   facet normal 9.932307e-001 -1.161583e-001 0.000000e+000
      outer loop
         vertex 5.500000e+001 6.735557e-015 8.140000e+002
         vertex 5.416443e+001 -9.550650e+000 9.740000e+002
         vertex 5.416443e+001 -9.550650e+000 8.140000e+002
      endloop
   endfacet
   facet normal 9.730600e-001 -2.305519e-001 0.000000e+000
      outer loop
         vertex 5.416443e+001 -9.550650e+000 8.140000e+002
         vertex 5.416443e+001 -9.550650e+000 9.740000e+002
         vertex 5.168309e+001 -1.881111e+001 9.740000e+002
      endloop
   endfacet
   facet normal 9.579706e-001 -2.868663e-001 0.000000e+000
      outer loop
         vertex 5.416443e+001 -9.550650e+000 8.140000e+002
         vertex 5.168309e+001 -1.881111e+001 9.740000e+002
         vertex 5.168309e+001 -1.881111e+001 8.140000e+002
      endloop
   endfacet
   facet normal 9.182422e-001 -3.960194e-001 0.000000e+000
      outer loop
         vertex 5.168309e+001 -1.881111e+001 8.140000e+002
         vertex 5.168309e+001 -1.881111e+001 9.740000e+002
         vertex 4.763140e+001 -2.750000e+001 9.740000e+002
      endloop
   endfacet
   facet normal 8.936031e-001 -4.488580e-001 0.000000e+000
      outer loop
         vertex 5.168309e+001 -1.881111e+001 8.140000e+002
         vertex 4.763140e+001 -2.750000e+001 9.740000e+002
         vertex 4.763140e+001 -2.750000e+001 8.140000e+002
      endloop
   endfacet
   facet normal 8.355240e-001 -5.494540e-001 0.000000e+000
      outer loop
         vertex 4.763140e+001 -2.750000e+001 8.140000e+002
         vertex 4.763140e+001 -2.750000e+001 9.740000e+002
         vertex 4.213245e+001 -3.535332e+001 9.740000e+002
      endloop
   endfacet
   facet normal 8.020838e-001 -5.972114e-001 0.000000e+000
      outer loop
         vertex 4.763140e+001 -2.750000e+001 8.140000e+002
         vertex 4.213245e+001 -3.535332e+001 9.740000e+002
         vertex 4.213245e+001 -3.535332e+001 8.140000e+002
      endloop
   endfacet
   facet normal 7.274188e-001 -6.861938e-001 0.000000e+000
      outer loop
         vertex 4.213245e+001 -3.535332e+001 8.140000e+002
         vertex 4.213245e+001 -3.535332e+001 9.740000e+002
         vertex 3.535332e+001 -4.213245e+001 9.740000e+002
      endloop
   endfacet
   facet normal 6.861938e-001 -7.274188e-001 0.000000e+000
      outer loop
         vertex 4.213245e+001 -3.535332e+001 8.140000e+002
         vertex 3.535332e+001 -4.213245e+001 9.740000e+002
         vertex 3.535332e+001 -4.213245e+001 8.140000e+002
      endloop
   endfacet
   facet normal 5.972114e-001 -8.020838e-001 0.000000e+000
      outer loop
         vertex 3.535332e+001 -4.213245e+001 8.140000e+002
         vertex 3.535332e+001 -4.213245e+001 9.740000e+002
         vertex 2.750000e+001 -4.763140e+001 9.740000e+002
      endloop
   endfacet
   facet normal 5.494540e-001 -8.355240e-001 0.000000e+000
      outer loop
         vertex 3.535332e+001 -4.213245e+001 8.140000e+002
         vertex 2.750000e+001 -4.763140e+001 9.740000e+002
         vertex 2.750000e+001 -4.763140e+001 8.140000e+002
      endloop
   endfacet
   facet normal 4.488580e-001 -8.936031e-001 0.000000e+000
      outer loop
         vertex 2.750000e+001 -4.763140e+001 8.140000e+002
         vertex 2.750000e+001 -4.763140e+001 9.740000e+002
         vertex 1.881111e+001 -5.168309e+001 9.740000e+002
      endloop
   endfacet
   facet normal 3.960194e-001 -9.182422e-001 0.000000e+000
      outer loop
         vertex 2.750000e+001 -4.763140e+001 8.140000e+002
         vertex 1.881111e+001 -5.168309e+001 9.740000e+002
         vertex 1.881111e+001 -5.168309e+001 8.140000e+002
      endloop
   endfacet
   facet normal 2.868663e-001 -9.579706e-001 0.000000e+000
      outer loop
         vertex 1.881111e+001 -5.168309e+001 8.140000e+002
         vertex 1.881111e+001 -5.168309e+001 9.740000e+002
         vertex 9.550650e+000 -5.416443e+001 9.740000e+002
      endloop
   endfacet
   facet normal 2.305519e-001 -9.730600e-001 0.000000e+000
      outer loop
         vertex 1.881111e+001 -5.168309e+001 8.140000e+002
         vertex 9.550650e+000 -5.416443e+001 9.740000e+002
         vertex 9.550650e+000 -5.416443e+001 8.140000e+002
      endloop
   endfacet
   facet normal 1.161583e-001 -9.932307e-001 0.000000e+000
      outer loop
         vertex 9.550650e+000 -5.416443e+001 8.140000e+002
         vertex 9.550650e+000 -5.416443e+001 9.740000e+002
         vertex 1.010334e-014 -5.500000e+001 9.740000e+002
      endloop
   endfacet
   facet normal 5.807913e-002 -9.983119e-001 0.000000e+000
      outer loop
         vertex 9.550650e+000 -5.416443e+001 8.140000e+002
         vertex 1.010334e-014 -5.500000e+001 9.740000e+002
         vertex 1.010334e-014 -5.500000e+001 8.140000e+002
      endloop
   endfacet
   facet normal -5.807913e-002 -9.983119e-001 0.000000e+000
      outer loop
         vertex 1.010334e-014 -5.500000e+001 8.140000e+002
         vertex 1.010334e-014 -5.500000e+001 9.740000e+002
         vertex -9.550650e+000 -5.416443e+001 9.740000e+002
      endloop
   endfacet
   facet normal -1.161583e-001 -9.932307e-001 0.000000e+000
      outer loop
         vertex 1.010334e-014 -5.500000e+001 8.140000e+002
         vertex -9.550650e+000 -5.416443e+001 9.740000e+002
         vertex -9.550650e+000 -5.416443e+001 8.140000e+002
      endloop
   endfacet
   facet normal -2.305519e-001 -9.730600e-001 0.000000e+000
      outer loop
         vertex -9.550650e+000 -5.416443e+001 8.140000e+002
         vertex -9.550650e+000 -5.416443e+001 9.740000e+002
         vertex -1.881111e+001 -5.168309e+001 9.740000e+002
      endloop
   endfacet
   facet normal -2.868663e-001 -9.579706e-001 0.000000e+000
      outer loop
         vertex -9.550650e+000 -5.416443e+001 8.140000e+002
         vertex -1.881111e+001 -5.168309e+001 9.740000e+002
         vertex -1.881111e+001 -5.168309e+001 8.140000e+002
      endloop
   endfacet
   facet normal -3.960194e-001 -9.182422e-001 0.000000e+000
      outer loop
         vertex -1.881111e+001 -5.168309e+001 8.140000e+002
         vertex -1.881111e+001 -5.168309e+001 9.740000e+002
         vertex -2.750000e+001 -4.763140e+001 9.740000e+002
      endloop
   endfacet
   facet normal -4.488580e-001 -8.936031e-001 0.000000e+000
      outer loop
         vertex -1.881111e+001 -5.168309e+001 8.140000e+002
         vertex -2.750000e+001 -4.763140e+001 9.740000e+002
         vertex -2.750000e+001 -4.763140e+001 8.140000e+002
      endloop
   endfacet
   facet normal -5.494540e-001 -8.355240e-001 0.000000e+000
      outer loop
         vertex -2.750000e+001 -4.763140e+001 8.140000e+002
         vertex -2.750000e+001 -4.763140e+001 9.740000e+002
         vertex -3.535332e+001 -4.213245e+001 9.740000e+002
      endloop
   endfacet
   facet normal -5.972114e-001 -8.020838e-001 0.000000e+000
      outer loop
         vertex -2.750000e+001 -4.763140e+001 8.140000e+002
         vertex -3.535332e+001 -4.213245e+001 9.740000e+002
         vertex -3.535332e+001 -4.213245e+001 8.140000e+002
      endloop
   endfacet
   facet normal -6.861938e-001 -7.274188e-001 0.000000e+000
      outer loop
         vertex -3.535332e+001 -4.213245e+001 8.140000e+002
         vertex -3.535332e+001 -4.213245e+001 9.740000e+002
         vertex -4.213245e+001 -3.535332e+001 9.740000e+002
      endloop
   endfacet
   facet normal -7.274188e-001 -6.861938e-001 0.000000e+000
      outer loop
         vertex -3.535332e+001 -4.213245e+001 8.140000e+002
         vertex -4.213245e+001 -3.535332e+001 9.740000e+002
         vertex -4.213245e+001 -3.535332e+001 8.140000e+002
      endloop
   endfacet
   facet normal -8.020838e-001 -5.972114e-001 0.000000e+000
      outer loop
         vertex -4.213245e+001 -3.535332e+001 8.140000e+002
         vertex -4.213245e+001 -3.535332e+001 9.740000e+002
         vertex -4.763140e+001 -2.750000e+001 9.740000e+002
      endloop
   endfacet
   facet normal -8.355240e-001 -5.494540e-001 0.000000e+000
      outer loop
         vertex -4.213245e+001 -3.535332e+001 8.140000e+002
         vertex -4.763140e+001 -2.750000e+001 9.740000e+002
         vertex -4.763140e+001 -2.750000e+001 8.140000e+002
      endloop
   endfacet
   facet normal -8.936031e-001 -4.488580e-001 0.000000e+000
      outer loop
         vertex -4.763140e+001 -2.750000e+001 8.140000e+002
         vertex -4.763140e+001 -2.750000e+001 9.740000e+002
         vertex -5.168309e+001 -1.881111e+001 9.740000e+002
      endloop
   endfacet
   facet normal -9.182422e-001 -3.960194e-001 0.000000e+000
      outer loop
         vertex -4.763140e+001 -2.750000e+001 8.140000e+002
         vertex -5.168309e+001 -1.881111e+001 9.740000e+002
         vertex -5.168309e+001 -1.881111e+001 8.140000e+002
      endloop
   endfacet
   facet normal -9.579706e-001 -2.868663e-001 0.000000e+000
      outer loop
         vertex -5.168309e+001 -1.881111e+001 8.140000e+002
         vertex -5.168309e+001 -1.881111e+001 9.740000e+002
         vertex -5.416443e+001 -9.550650e+000 9.740000e+002
      endloop
   endfacet
   facet normal -9.730600e-001 -2.305519e-001 0.000000e+000
      outer loop
         vertex -5.168309e+001 -1.881111e+001 8.140000e+002
         vertex -5.416443e+001 -9.550650e+000 9.740000e+002
         vertex -5.416443e+001 -9.550650e+000 8.140000e+002
      endloop
   endfacet
   facet normal -9.932307e-001 -1.161583e-001 0.000000e+000
      outer loop
         vertex -5.416443e+001 -9.550650e+000 8.140000e+002
         vertex -5.416443e+001 -9.550650e+000 9.740000e+002
         vertex -5.500000e+001 0.000000e+000 9.740000e+002
      endloop
   endfacet
   facet normal -9.983119e-001 -5.807913e-002 0.000000e+000
      outer loop
         vertex -5.416443e+001 -9.550650e+000 8.140000e+002
         vertex -5.500000e+001 0.000000e+000 9.740000e+002
         vertex -5.500000e+001 0.000000e+000 8.140000e+002
      endloop
   endfacet
   facet normal -9.983119e-001 5.807913e-002 0.000000e+000
      outer loop
         vertex -5.500000e+001 0.000000e+000 8.140000e+002
         vertex -5.500000e+001 0.000000e+000 9.740000e+002
         vertex -5.416443e+001 9.550650e+000 9.740000e+002
      endloop
   endfacet
   facet normal 0.000000e+000 0.000000e+000 1.000000e+000
      outer loop
         vertex -5.168309e+001 1.881111e+001 9.740000e+002
         vertex -5.416443e+001 9.550650e+000 9.740000e+002
         vertex 0.000000e+000 0.000000e+000 9.740000e+002
      endloop
   endfacet
   facet normal 0.000000e+000 0.000000e+000 1.000000e+000
      outer loop
         vertex 0.000000e+000 0.000000e+000 9.740000e+002
         vertex -5.416443e+001 9.550650e+000 9.740000e+002
         vertex -5.500000e+001 0.000000e+000 9.740000e+002
      endloop
   endfacet
   facet normal 0.000000e+000 0.000000e+000 1.000000e+000
      outer loop
         vertex 0.000000e+000 0.000000e+000 9.740000e+002
         vertex -5.500000e+001 0.000000e+000 9.740000e+002
         vertex -5.416443e+001 -9.550650e+000 9.740000e+002
      endloop
   endfacet
   facet normal 0.000000e+000 0.000000e+000 1.000000e+000
      outer loop
         vertex -3.535332e+001 4.213245e+001 9.740000e+002
         vertex -4.213245e+001 3.535332e+001 9.740000e+002
         vertex 0.000000e+000 0.000000e+000 9.740000e+002
      endloop
   endfacet
   facet normal 0.000000e+000 0.000000e+000 1.000000e+000
      outer loop
         vertex 0.000000e+000 0.000000e+000 9.740000e+002
         vertex -4.213245e+001 3.535332e+001 9.740000e+002
         vertex -4.763140e+001 2.750000e+001 9.740000e+002
      endloop
   endfacet
   facet normal 0.000000e+000 0.000000e+000 1.000000e+000
      outer loop
         vertex 0.000000e+000 0.000000e+000 9.740000e+002
         vertex -4.763140e+001 2.750000e+001 9.740000e+002
         vertex -5.168309e+001 1.881111e+001 9.740000e+002
      endloop
   endfacet
   facet normal 0.000000e+000 0.000000e+000 1.000000e+000
      outer loop
         vertex -9.550650e+000 5.416443e+001 9.740000e+002
         vertex -1.881111e+001 5.168309e+001 9.740000e+002
         vertex 0.000000e+000 0.000000e+000 9.740000e+002
      endloop
   endfacet
   facet normal 0.000000e+000 0.000000e+000 1.000000e+000
      outer loop
         vertex 0.000000e+000 0.000000e+000 9.740000e+002
         vertex -1.881111e+001 5.168309e+001 9.740000e+002
         vertex -2.750000e+001 4.763140e+001 9.740000e+002
      endloop
   endfacet
   facet normal 0.000000e+000 0.000000e+000 1.000000e+000
      outer loop
         vertex 0.000000e+000 0.000000e+000 9.740000e+002
         vertex -2.750000e+001 4.763140e+001 9.740000e+002
         vertex -3.535332e+001 4.213245e+001 9.740000e+002
      endloop
   endfacet
   facet normal 0.000000e+000 0.000000e+000 1.000000e+000
      outer loop
         vertex 1.881111e+001 5.168309e+001 9.740000e+002
         vertex 9.550650e+000 5.416443e+001 9.740000e+002
         vertex 0.000000e+000 0.000000e+000 9.740000e+002
      endloop
   endfacet
   facet normal 0.000000e+000 0.000000e+000 1.000000e+000
      outer loop
         vertex 0.000000e+000 0.000000e+000 9.740000e+002
         vertex 9.550650e+000 5.416443e+001 9.740000e+002
         vertex 0.000000e+000 5.500000e+001 9.740000e+002
      endloop
   endfacet
   facet normal 0.000000e+000 0.000000e+000 1.000000e+000
      outer loop
         vertex 0.000000e+000 0.000000e+000 9.740000e+002
         vertex 0.000000e+000 5.500000e+001 9.740000e+002
         vertex -9.550650e+000 5.416443e+001 9.740000e+002
      endloop
   endfacet
   facet normal 0.000000e+000 0.000000e+000 1.000000e+000
      outer loop
         vertex 4.213245e+001 3.535332e+001 9.740000e+002
         vertex 3.535332e+001 4.213245e+001 9.740000e+002
         vertex 0.000000e+000 0.000000e+000 9.740000e+002
      endloop
   endfacet
   facet normal 0.000000e+000 0.000000e+000 1.000000e+000
      outer loop
         vertex 0.000000e+000 0.000000e+000 9.740000e+002
         vertex 3.535332e+001 4.213245e+001 9.740000e+002
         vertex 2.750000e+001 4.763140e+001 9.740000e+002
      endloop
   endfacet
   facet normal 0.000000e+000 0.000000e+000 1.000000e+000
      outer loop
         vertex 0.000000e+000 0.000000e+000 9.740000e+002
         vertex 2.750000e+001 4.763140e+001 9.740000e+002
         vertex 1.881111e+001 5.168309e+001 9.740000e+002
      endloop
   endfacet
   facet normal 0.000000e+000 0.000000e+000 1.000000e+000
      outer loop
         vertex 5.416443e+001 9.550650e+000 9.740000e+002
         vertex 5.168309e+001 1.881111e+001 9.740000e+002
         vertex 0.000000e+000 0.000000e+000 9.740000e+002
      endloop
   endfacet
   facet normal 0.000000e+000 0.000000e+000 1.000000e+000
      outer loop
         vertex 0.000000e+000 0.000000e+000 9.740000e+002
         vertex 5.168309e+001 1.881111e+001 9.740000e+002
         vertex 4.763140e+001 2.750000e+001 9.740000e+002
      endloop
   endfacet
   facet normal 0.000000e+000 0.000000e+000 1.000000e+000
      outer loop
         vertex 0.000000e+000 0.000000e+000 9.740000e+002
         vertex 4.763140e+001 2.750000e+001 9.740000e+002
         vertex 4.213245e+001 3.535332e+001 9.740000e+002
      endloop
   endfacet
   facet normal 0.000000e+000 0.000000e+000 1.000000e+000
      outer loop
         vertex 5.168309e+001 -1.881111e+001 9.740000e+002
         vertex 5.416443e+001 -9.550650e+000 9.740000e+002
         vertex 0.000000e+000 0.000000e+000 9.740000e+002
      endloop
   endfacet
   facet normal 0.000000e+000 0.000000e+000 1.000000e+000
      outer loop
         vertex 0.000000e+000 0.000000e+000 9.740000e+002
         vertex 5.416443e+001 -9.550650e+000 9.740000e+002
         vertex 5.500000e+001 6.735557e-015 9.740000e+002
      endloop
   endfacet
   facet normal 0.000000e+000 0.000000e+000 1.000000e+000
      outer loop
         vertex 0.000000e+000 0.000000e+000 9.740000e+002
         vertex 5.500000e+001 6.735557e-015 9.740000e+002
         vertex 5.416443e+001 9.550650e+000 9.740000e+002
      endloop
   endfacet
   facet normal 0.000000e+000 0.000000e+000 1.000000e+000
      outer loop
         vertex 3.535332e+001 -4.213245e+001 9.740000e+002
         vertex 4.213245e+001 -3.535332e+001 9.740000e+002
         vertex 0.000000e+000 0.000000e+000 9.740000e+002
      endloop
   endfacet
   facet normal 0.000000e+000 0.000000e+000 1.000000e+000
      outer loop
         vertex 0.000000e+000 0.000000e+000 9.740000e+002
         vertex 4.213245e+001 -3.535332e+001 9.740000e+002
         vertex 4.763140e+001 -2.750000e+001 9.740000e+002
      endloop
   endfacet
   facet normal 0.000000e+000 0.000000e+000 1.000000e+000
      outer loop
         vertex 0.000000e+000 0.000000e+000 9.740000e+002
         vertex 4.763140e+001 -2.750000e+001 9.740000e+002
         vertex 5.168309e+001 -1.881111e+001 9.740000e+002
      endloop
   endfacet
   facet normal 0.000000e+000 0.000000e+000 1.000000e+000
      outer loop
         vertex 9.550650e+000 -5.416443e+001 9.740000e+002
         vertex 1.881111e+001 -5.168309e+001 9.740000e+002
         vertex 0.000000e+000 0.000000e+000 9.740000e+002
      endloop
   endfacet
   facet normal 0.000000e+000 0.000000e+000 1.000000e+000
      outer loop
         vertex 0.000000e+000 0.000000e+000 9.740000e+002
         vertex 1.881111e+001 -5.168309e+001 9.740000e+002
         vertex 2.750000e+001 -4.763140e+001 9.740000e+002
      endloop
   endfacet
   facet normal 0.000000e+000 0.000000e+000 1.000000e+000
      outer loop
         vertex 0.000000e+000 0.000000e+000 9.740000e+002
         vertex 2.750000e+001 -4.763140e+001 9.740000e+002
         vertex 3.535332e+001 -4.213245e+001 9.740000e+002
      endloop
   endfacet
   facet normal 0.000000e+000 0.000000e+000 1.000000e+000
      outer loop
         vertex -1.881111e+001 -5.168309e+001 9.740000e+002
         vertex -9.550650e+000 -5.416443e+001 9.740000e+002
         vertex 0.000000e+000 0.000000e+000 9.740000e+002
      endloop
   endfacet
   facet normal 0.000000e+000 0.000000e+000 1.000000e+000
      outer loop
         vertex 0.000000e+000 0.000000e+000 9.740000e+002
         vertex -9.550650e+000 -5.416443e+001 9.740000e+002
         vertex 6.938894e-015 -5.500000e+001 9.740000e+002
      endloop
   endfacet
   facet normal 0.000000e+000 0.000000e+000 1.000000e+000
      outer loop
         vertex 0.000000e+000 0.000000e+000 9.740000e+002
         vertex 6.938894e-015 -5.500000e+001 9.740000e+002
         vertex 9.550650e+000 -5.416443e+001 9.740000e+002
      endloop
   endfacet
   facet normal 0.000000e+000 0.000000e+000 1.000000e+000
      outer loop
         vertex -4.213245e+001 -3.535332e+001 9.740000e+002
         vertex -3.535332e+001 -4.213245e+001 9.740000e+002
         vertex 0.000000e+000 0.000000e+000 9.740000e+002
      endloop
   endfacet
   facet normal 0.000000e+000 0.000000e+000 1.000000e+000
      outer loop
         vertex 0.000000e+000 0.000000e+000 9.740000e+002
         vertex -3.535332e+001 -4.213245e+001 9.740000e+002
         vertex -2.750000e+001 -4.763140e+001 9.740000e+002
      endloop
   endfacet
   facet normal 0.000000e+000 0.000000e+000 1.000000e+000
      outer loop
         vertex 0.000000e+000 0.000000e+000 9.740000e+002
         vertex -2.750000e+001 -4.763140e+001 9.740000e+002
         vertex -1.881111e+001 -5.168309e+001 9.740000e+002
      endloop
   endfacet
   facet normal 0.000000e+000 0.000000e+000 1.000000e+000
      outer loop
         vertex -5.416443e+001 -9.550650e+000 9.740000e+002
         vertex -5.168309e+001 -1.881111e+001 9.740000e+002
         vertex 0.000000e+000 0.000000e+000 9.740000e+002
      endloop
   endfacet
   facet normal 0.000000e+000 0.000000e+000 1.000000e+000
      outer loop
         vertex 0.000000e+000 0.000000e+000 9.740000e+002
         vertex -5.168309e+001 -1.881111e+001 9.740000e+002
         vertex -4.763140e+001 -2.750000e+001 9.740000e+002
      endloop
   endfacet
   facet normal 0.000000e+000 0.000000e+000 1.000000e+000
      outer loop
         vertex 0.000000e+000 0.000000e+000 9.740000e+002
         vertex -4.763140e+001 -2.750000e+001 9.740000e+002
         vertex -4.213245e+001 -3.535332e+001 9.740000e+002
      endloop
   endfacet
   facet normal -7.105644e-001 0.000000e+000 7.036321e-001
      outer loop
         vertex -4.630000e+002 -1.310000e+002 6.090000e+002
         vertex -2.600000e+002 -1.310000e+002 8.140000e+002
         vertex -4.630000e+002 1.310000e+002 6.090000e+002
      endloop
   endfacet
   facet normal -7.105644e-001 0.000000e+000 7.036321e-001
      outer loop
         vertex -4.630000e+002 1.310000e+002 6.090000e+002
         vertex -2.600000e+002 -1.310000e+002 8.140000e+002
         vertex -2.600000e+002 1.310000e+002 8.140000e+002
      endloop
   endfacet
endsolid