solid frontleft_beam_850x30x30
   facet normal 0.000000e+000 0.000000e+000 -1.000000e+000
      outer loop
         vertex 1.500000e+001 1.500000e+001 -4.250000e+002
         vertex 1.500000e+001 -1.500000e+001 -4.250000e+002
         vertex -1.500000e+001 1.500000e+001 -4.250000e+002
      endloop
   endfacet
   facet normal 0.000000e+000 0.000000e+000 -1.000000e+000
      outer loop
         vertex -1.500000e+001 1.500000e+001 -4.250000e+002
         vertex 1.500000e+001 -1.500000e+001 -4.250000e+002
         vertex -1.500000e+001 -1.500000e+001 -4.250000e+002
      endloop
   endfacet
   facet normal 0.000000e+000 1.000000e+000 0.000000e+000
      outer loop
         vertex 1.500000e+001 1.500000e+001 4.250000e+002
         vertex 1.500000e+001 1.500000e+001 -4.250000e+002
         vertex -1.500000e+001 1.500000e+001 4.250000e+002
      endloop
   endfacet
   facet normal 0.000000e+000 1.000000e+000 0.000000e+000
      outer loop
         vertex -1.500000e+001 1.500000e+001 4.250000e+002
         vertex 1.500000e+001 1.500000e+001 -4.250000e+002
         vertex -1.500000e+001 1.500000e+001 -4.250000e+002
      endloop
   endfacet
   facet normal 0.000000e+000 0.000000e+000 1.000000e+000
      outer loop
         vertex 1.500000e+001 -1.500000e+001 4.250000e+002
         vertex 1.500000e+001 1.500000e+001 4.250000e+002
         vertex -1.500000e+001 -1.500000e+001 4.250000e+002
      endloop
   endfacet
   facet normal 0.000000e+000 0.000000e+000 1.000000e+000
      outer loop
         vertex -1.500000e+001 -1.500000e+001 4.250000e+002
         vertex 1.500000e+001 1.500000e+001 4.250000e+002
         vertex -1.500000e+001 1.500000e+001 4.250000e+002
      endloop
   endfacet
   facet normal 0.000000e+000 -1.000000e+000 0.000000e+000
      outer loop
         vertex 1.500000e+001 -1.500000e+001 -4.250000e+002
         vertex 1.500000e+001 -1.500000e+001 4.250000e+002
         vertex -1.500000e+001 -1.500000e+001 -4.250000e+002
      endloop
   endfacet
   facet normal 0.000000e+000 -1.000000e+000 0.000000e+000
      outer loop
         vertex -1.500000e+001 -1.500000e+001 -4.250000e+002
         vertex 1.500000e+001 -1.500000e+001 4.250000e+002
         vertex -1.500000e+001 -1.500000e+001 4.250000e+002
      endloop
   endfacet
   facet normal 1.000000e+000 0.000000e+000 0.000000e+000
      outer loop
         vertex 1.500000e+001 1.500000e+001 4.250000e+002
         vertex 1.500000e+001 -1.500000e+001 4.250000e+002
         vertex 1.500000e+001 1.500000e+001 -4.250000e+002
      endloop
   endfacet
   facet normal 1.000000e+000 0.000000e+000 0.000000e+000
      outer loop
         vertex 1.500000e+001 1.500000e+001 -4.250000e+002
         vertex 1.500000e+001 -1.500000e+001 4.250000e+002
         vertex 1.500000e+001 -1.500000e+001 -4.250000e+002
      endloop
   endfacet
   facet normal -1.000000e+000 0.000000e+000 0.000000e+000
      outer loop
         vertex -1.500000e+001 -1.500000e+001 4.250000e+002
         vertex -1.500000e+001 1.500000e+001 4.250000e+002
         vertex -1.500000e+001 -1.500000e+001 -4.250000e+002
      endloop
   endfacet
   facet normal -1.000000e+000 0.000000e+000 0.000000e+000
      outer loop
         vertex -1.500000e+001 -1.500000e+001 -4.250000e+002
         vertex -1.500000e+001 1.500000e+001 4.250000e+002
         vertex -1.500000e+001 1.500000e+001 -4.250000e+002
      endloop
   endfacet
endsolid