solid belowfront_beam_800x30x30
   facet normal 0.000000e+000 -1.000000e+000 0.000000e+000
      outer loop
         vertex 1.500000e+001 -4.000000e+002 -1.500000e+001
         vertex 1.500000e+001 -4.000000e+002 1.500000e+001
         vertex -1.500000e+001 -4.000000e+002 -1.500000e+001
      endloop
   endfacet
   facet normal 0.000000e+000 -1.000000e+000 0.000000e+000
      outer loop
         vertex -1.500000e+001 -4.000000e+002 -1.500000e+001
         vertex 1.500000e+001 -4.000000e+002 1.500000e+001
         vertex -1.500000e+001 -4.000000e+002 1.500000e+001
      endloop
   endfacet
   facet normal 0.000000e+000 0.000000e+000 -1.000000e+000
      outer loop
         vertex 1.500000e+001 4.000000e+002 -1.500000e+001
         vertex 1.500000e+001 -4.000000e+002 -1.500000e+001
         vertex -1.500000e+001 4.000000e+002 -1.500000e+001
      endloop
   endfacet
   facet normal 0.000000e+000 0.000000e+000 -1.000000e+000
      outer loop
         vertex -1.500000e+001 4.000000e+002 -1.500000e+001
         vertex 1.500000e+001 -4.000000e+002 -1.500000e+001
         vertex -1.500000e+001 -4.000000e+002 -1.500000e+001
      endloop
   endfacet
   facet normal 0.000000e+000 1.000000e+000 0.000000e+000
      outer loop
         vertex 1.500000e+001 4.000000e+002 1.500000e+001
         vertex 1.500000e+001 4.000000e+002 -1.500000e+001
         vertex -1.500000e+001 4.000000e+002 1.500000e+001
      endloop
   endfacet
   facet normal 0.000000e+000 1.000000e+000 0.000000e+000
      outer loop
         vertex -1.500000e+001 4.000000e+002 1.500000e+001
         vertex 1.500000e+001 4.000000e+002 -1.500000e+001
         vertex -1.500000e+001 4.000000e+002 -1.500000e+001
      endloop
   endfacet
   facet normal 0.000000e+000 0.000000e+000 1.000000e+000
      outer loop
         vertex 1.500000e+001 -4.000000e+002 1.500000e+001
         vertex 1.500000e+001 4.000000e+002 1.500000e+001
         vertex -1.500000e+001 -4.000000e+002 1.500000e+001
      endloop
   endfacet
   facet normal 0.000000e+000 0.000000e+000 1.000000e+000
      outer loop
         vertex -1.500000e+001 -4.000000e+002 1.500000e+001
         vertex 1.500000e+001 4.000000e+002 1.500000e+001
         vertex -1.500000e+001 4.000000e+002 1.500000e+001
      endloop
   endfacet
   facet normal 1.000000e+000 0.000000e+000 0.000000e+000
      outer loop
         vertex 1.500000e+001 4.000000e+002 -1.500000e+001
         vertex 1.500000e+001 4.000000e+002 1.500000e+001
         vertex 1.500000e+001 -4.000000e+002 -1.500000e+001
      endloop
   endfacet
   facet normal 1.000000e+000 0.000000e+000 0.000000e+000
      outer loop
         vertex 1.500000e+001 -4.000000e+002 -1.500000e+001
         vertex 1.500000e+001 4.000000e+002 1.500000e+001
         vertex 1.500000e+001 -4.000000e+002 1.500000e+001
      endloop
   endfacet
   facet normal -1.000000e+000 0.000000e+000 0.000000e+000
      outer loop
         vertex -1.500000e+001 4.000000e+002 1.500000e+001
         vertex -1.500000e+001 4.000000e+002 -1.500000e+001
         vertex -1.500000e+001 -4.000000e+002 1.500000e+001
      endloop
   endfacet
   facet normal -1.000000e+000 0.000000e+000 0.000000e+000
      outer loop
         vertex -1.500000e+001 -4.000000e+002 1.500000e+001
         vertex -1.500000e+001 4.000000e+002 -1.500000e+001
         vertex -1.500000e+001 -4.000000e+002 -1.500000e+001
      endloop
   endfacet
endsolid