solid table
   facet normal 9.251858e-017 -1.000000e+000 0.000000e+000
      outer loop
         vertex 3.000000e+002 -4.500000e+002 1.490116e-006
         vertex -3.000000e+002 -4.500000e+002 1.490116e-006
         vertex 3.000000e+002 -4.500000e+002 -1.000000e+002
      endloop
   endfacet
   facet normal 9.251858e-017 -1.000000e+000 0.000000e+000
      outer loop
         vertex 3.000000e+002 -4.500000e+002 -1.000000e+002
         vertex -3.000000e+002 -4.500000e+002 1.490116e-006
         vertex -3.000000e+002 -4.500000e+002 -1.000000e+002
      endloop
   endfacet
   facet normal 1.000000e+000 0.000000e+000 0.000000e+000
      outer loop
         vertex 3.000000e+002 4.500000e+002 1.490116e-006
         vertex 3.000000e+002 -4.500000e+002 1.490116e-006
         vertex 3.000000e+002 4.500000e+002 -1.000000e+002
      endloop
   endfacet
   facet normal 1.000000e+000 0.000000e+000 0.000000e+000
      outer loop
         vertex 3.000000e+002 4.500000e+002 -1.000000e+002
         vertex 3.000000e+002 -4.500000e+002 1.490116e-006
         vertex 3.000000e+002 -4.500000e+002 -1.000000e+002
      endloop
   endfacet
   facet normal 0.000000e+000 1.000000e+000 0.000000e+000
      outer loop
         vertex -3.000000e+002 4.500000e+002 1.490116e-006
         vertex 3.000000e+002 4.500000e+002 1.490116e-006
         vertex -3.000000e+002 4.500000e+002 -1.000000e+002
      endloop
   endfacet
   facet normal 0.000000e+000 1.000000e+000 0.000000e+000
      outer loop
         vertex -3.000000e+002 4.500000e+002 -1.000000e+002
         vertex 3.000000e+002 4.500000e+002 1.490116e-006
         vertex 3.000000e+002 4.500000e+002 -1.000000e+002
      endloop
   endfacet
   facet normal -1.000000e+000 0.000000e+000 0.000000e+000
      outer loop
         vertex -3.000000e+002 -4.500000e+002 1.490116e-006
         vertex -3.000000e+002 4.500000e+002 1.490116e-006
         vertex -3.000000e+002 -4.500000e+002 -1.000000e+002
      endloop
   endfacet
   facet normal -1.000000e+000 0.000000e+000 0.000000e+000
      outer loop
         vertex -3.000000e+002 -4.500000e+002 -1.000000e+002
         vertex -3.000000e+002 4.500000e+002 1.490116e-006
         vertex -3.000000e+002 4.500000e+002 -1.000000e+002
      endloop
   endfacet
   facet normal 0.000000e+000 0.000000e+000 1.000000e+000
      outer loop
         vertex 3.000000e+002 4.500000e+002 1.490116e-006
         vertex -3.000000e+002 4.500000e+002 1.490116e-006
         vertex 3.000000e+002 -4.500000e+002 1.490116e-006
      endloop
   endfacet
   facet normal 0.000000e+000 0.000000e+000 1.000000e+000
      outer loop
         vertex 3.000000e+002 -4.500000e+002 1.490116e-006
         vertex -3.000000e+002 4.500000e+002 1.490116e-006
         vertex -3.000000e+002 -4.500000e+002 1.490116e-006
      endloop
   endfacet
   facet normal 0.000000e+000 0.000000e+000 -1.000000e+000
      outer loop
         vertex -3.000000e+002 4.500000e+002 -1.000000e+002
         vertex 3.000000e+002 4.500000e+002 -1.000000e+002
         vertex -3.000000e+002 -4.500000e+002 -1.000000e+002
      endloop
   endfacet
   facet normal 0.000000e+000 0.000000e+000 -1.000000e+000
      outer loop
         vertex -3.000000e+002 -4.500000e+002 -1.000000e+002
         vertex 3.000000e+002 4.500000e+002 -1.000000e+002
         vertex 3.000000e+002 -4.500000e+002 -1.000000e+002
      endloop
   endfacet
endsolid