solid table
   facet normal 0.000000e+000 0.000000e+000 -1.000000e+000
      outer loop
         vertex 2.750000e+002 3.140000e+002 3.110000e+002
         vertex 7.300000e+001 3.140000e+002 3.110000e+002
         vertex 7.300000e+001 3.640000e+002 3.110000e+002
      endloop
   endfacet
   facet normal 0.000000e+000 0.000000e+000 -1.000000e+000
      outer loop
         vertex 5.270000e+002 -3.640000e+002 3.110000e+002
         vertex 7.300000e+001 -3.640000e+002 3.110000e+002
         vertex 2.750000e+002 -3.140000e+002 3.110000e+002
      endloop
   endfacet
   facet normal 0.000000e+000 0.000000e+000 -1.000000e+000
      outer loop
         vertex 2.750000e+002 -3.140000e+002 3.110000e+002
         vertex 7.300000e+001 -3.640000e+002 3.110000e+002
         vertex 7.300000e+001 -3.140000e+002 3.110000e+002
      endloop
   endfacet
   facet normal 0.000000e+000 0.000000e+000 -1.000000e+000
      outer loop
         vertex 5.270000e+002 3.640000e+002 3.110000e+002
         vertex 5.270000e+002 3.140000e+002 3.110000e+002
         vertex 3.250000e+002 3.140000e+002 3.110000e+002
      endloop
   endfacet
   facet normal 0.000000e+000 0.000000e+000 -1.000000e+000
      outer loop
         vertex 5.270000e+002 -3.140000e+002 3.110000e+002
         vertex 5.270000e+002 -3.640000e+002 3.110000e+002
         vertex 3.250000e+002 -3.140000e+002 3.110000e+002
      endloop
   endfacet
   facet normal 0.000000e+000 0.000000e+000 -1.000000e+000
      outer loop
         vertex 3.250000e+002 -3.140000e+002 3.110000e+002
         vertex 5.270000e+002 -3.640000e+002 3.110000e+002
         vertex 2.750000e+002 -3.140000e+002 3.110000e+002
      endloop
   endfacet
   facet normal 0.000000e+000 0.000000e+000 -1.000000e+000
      outer loop
         vertex 3.250000e+002 -3.140000e+002 3.110000e+002
         vertex 2.750000e+002 -3.140000e+002 3.110000e+002
         vertex 3.250000e+002 3.140000e+002 3.110000e+002
      endloop
   endfacet
   facet normal 0.000000e+000 0.000000e+000 -1.000000e+000
      outer loop
         vertex 3.250000e+002 3.140000e+002 3.110000e+002
         vertex 2.750000e+002 -3.140000e+002 3.110000e+002
         vertex 2.750000e+002 3.140000e+002 3.110000e+002
      endloop
   endfacet
   facet normal 0.000000e+000 0.000000e+000 -1.000000e+000
      outer loop
         vertex 3.250000e+002 3.140000e+002 3.110000e+002
         vertex 2.750000e+002 3.140000e+002 3.110000e+002
         vertex 5.270000e+002 3.640000e+002 3.110000e+002
      endloop
   endfacet
   facet normal 0.000000e+000 0.000000e+000 -1.000000e+000
      outer loop
         vertex 5.270000e+002 3.640000e+002 3.110000e+002
         vertex 2.750000e+002 3.140000e+002 3.110000e+002
         vertex 7.300000e+001 3.640000e+002 3.110000e+002
      endloop
   endfacet
   facet normal 1.000000e+000 0.000000e+000 0.000000e+000
      outer loop
         vertex 5.530000e+002 -3.140000e+002 3.199996e-008
         vertex 5.530000e+002 -3.140000e+002 8.720000e+002
         vertex 5.530000e+002 -3.640000e+002 3.199996e-008
      endloop
   endfacet
   facet normal 1.000000e+000 0.000000e+000 0.000000e+000
      outer loop
         vertex 5.530000e+002 -3.640000e+002 3.199996e-008
         vertex 5.530000e+002 -3.140000e+002 8.720000e+002
         vertex 5.530000e+002 -3.640000e+002 8.720000e+002
      endloop
   endfacet
   facet normal -1.000000e+000 0.000000e+000 0.000000e+000
      outer loop
         vertex 5.270000e+002 -3.140000e+002 3.600000e+002
         vertex 5.270000e+002 -3.640000e+002 3.600000e+002
         vertex 5.270000e+002 -3.140000e+002 8.720000e+002
      endloop
   endfacet
   facet normal -1.000000e+000 0.000000e+000 0.000000e+000
      outer loop
         vertex 5.270000e+002 -3.140000e+002 8.720000e+002
         vertex 5.270000e+002 -3.640000e+002 3.600000e+002
         vertex 5.270000e+002 -3.640000e+002 8.720000e+002
      endloop
   endfacet
   facet normal -1.000000e+000 0.000000e+000 0.000000e+000
      outer loop
         vertex 4.700000e+001 -3.640000e+002 3.199996e-008
         vertex 4.700000e+001 -3.640000e+002 8.720000e+002
         vertex 4.700000e+001 -3.140000e+002 3.199996e-008
      endloop
   endfacet
   facet normal -1.000000e+000 0.000000e+000 0.000000e+000
      outer loop
         vertex 4.700000e+001 -3.140000e+002 3.199996e-008
         vertex 4.700000e+001 -3.640000e+002 8.720000e+002
         vertex 4.700000e+001 -3.140000e+002 8.720000e+002
      endloop
   endfacet
   facet normal 0.000000e+000 -1.000000e+000 0.000000e+000
      outer loop
         vertex 7.300000e+001 -3.640000e+002 3.600000e+002
         vertex 7.300000e+001 -3.640000e+002 8.720000e+002
         vertex 4.700000e+001 -3.640000e+002 8.720000e+002
      endloop
   endfacet
   facet normal 0.000000e+000 -1.000000e+000 0.000000e+000
      outer loop
         vertex 5.270000e+002 -3.640000e+002 3.110000e+002
         vertex 5.270000e+002 -3.640000e+002 3.199996e-008
         vertex 5.530000e+002 -3.640000e+002 3.199996e-008
      endloop
   endfacet
   facet normal 0.000000e+000 -1.000000e+000 0.000000e+000
      outer loop
         vertex 4.700000e+001 -3.640000e+002 3.199996e-008
         vertex 7.300000e+001 -3.640000e+002 3.199996e-008
         vertex 7.300000e+001 -3.640000e+002 3.110000e+002
      endloop
   endfacet
   facet normal 0.000000e+000 -1.000000e+000 0.000000e+000
      outer loop
         vertex 5.530000e+002 -3.640000e+002 8.720000e+002
         vertex 5.270000e+002 -3.640000e+002 8.720000e+002
         vertex 5.270000e+002 -3.640000e+002 3.600000e+002
      endloop
   endfacet
   facet normal 0.000000e+000 -1.000000e+000 0.000000e+000
      outer loop
         vertex 4.700000e+001 -3.640000e+002 8.720000e+002
         vertex 4.700000e+001 -3.640000e+002 3.199996e-008
         vertex 7.300000e+001 -3.640000e+002 3.600000e+002
      endloop
   endfacet
   facet normal 0.000000e+000 -1.000000e+000 0.000000e+000
      outer loop
         vertex 7.300000e+001 -3.640000e+002 3.600000e+002
         vertex 4.700000e+001 -3.640000e+002 3.199996e-008
         vertex 7.300000e+001 -3.640000e+002 3.110000e+002
      endloop
   endfacet
   facet normal 0.000000e+000 -1.000000e+000 0.000000e+000
      outer loop
         vertex 7.300000e+001 -3.640000e+002 3.600000e+002
         vertex 7.300000e+001 -3.640000e+002 3.110000e+002
         vertex 5.270000e+002 -3.640000e+002 3.600000e+002
      endloop
   endfacet
   facet normal 0.000000e+000 -1.000000e+000 0.000000e+000
      outer loop
         vertex 5.270000e+002 -3.640000e+002 3.600000e+002
         vertex 7.300000e+001 -3.640000e+002 3.110000e+002
         vertex 5.270000e+002 -3.640000e+002 3.110000e+002
      endloop
   endfacet
   facet normal 0.000000e+000 -1.000000e+000 0.000000e+000
      outer loop
         vertex 5.270000e+002 -3.640000e+002 3.600000e+002
         vertex 5.270000e+002 -3.640000e+002 3.110000e+002
         vertex 5.530000e+002 -3.640000e+002 8.720000e+002
      endloop
   endfacet
   facet normal 0.000000e+000 -1.000000e+000 0.000000e+000
      outer loop
         vertex 5.530000e+002 -3.640000e+002 8.720000e+002
         vertex 5.270000e+002 -3.640000e+002 3.110000e+002
         vertex 5.530000e+002 -3.640000e+002 3.199996e-008
      endloop
   endfacet
   facet normal 0.000000e+000 1.000000e+000 0.000000e+000
      outer loop
         vertex 5.270000e+002 3.640000e+002 3.600000e+002
         vertex 5.270000e+002 3.640000e+002 8.720000e+002
         vertex 5.530000e+002 3.640000e+002 8.720000e+002
      endloop
   endfacet
   facet normal 0.000000e+000 1.000000e+000 0.000000e+000
      outer loop
         vertex 7.300000e+001 3.640000e+002 3.110000e+002
         vertex 7.300000e+001 3.640000e+002 3.199996e-008
         vertex 4.700000e+001 3.640000e+002 3.199996e-008
      endloop
   endfacet
   facet normal 0.000000e+000 1.000000e+000 0.000000e+000
      outer loop
         vertex 5.530000e+002 3.640000e+002 3.199990e-008
         vertex 5.270000e+002 3.640000e+002 3.199990e-008
         vertex 5.270000e+002 3.640000e+002 3.110000e+002
      endloop
   endfacet
   facet normal 0.000000e+000 1.000000e+000 0.000000e+000
      outer loop
         vertex 4.700000e+001 3.640000e+002 8.720000e+002
         vertex 7.300000e+001 3.640000e+002 8.720000e+002
         vertex 7.300000e+001 3.640000e+002 3.600000e+002
      endloop
   endfacet
   facet normal 0.000000e+000 1.000000e+000 0.000000e+000
      outer loop
         vertex 5.530000e+002 3.640000e+002 8.720000e+002
         vertex 5.530000e+002 3.640000e+002 3.199990e-008
         vertex 5.270000e+002 3.640000e+002 3.600000e+002
      endloop
   endfacet
   facet normal 0.000000e+000 1.000000e+000 0.000000e+000
      outer loop
         vertex 5.270000e+002 3.640000e+002 3.600000e+002
         vertex 5.530000e+002 3.640000e+002 3.199990e-008
         vertex 5.270000e+002 3.640000e+002 3.110000e+002
      endloop
   endfacet
   facet normal 0.000000e+000 1.000000e+000 0.000000e+000
      outer loop
         vertex 5.270000e+002 3.640000e+002 3.600000e+002
         vertex 5.270000e+002 3.640000e+002 3.110000e+002
         vertex 7.300000e+001 3.640000e+002 3.600000e+002
      endloop
   endfacet
   facet normal 0.000000e+000 1.000000e+000 0.000000e+000
      outer loop
         vertex 7.300000e+001 3.640000e+002 3.600000e+002
         vertex 5.270000e+002 3.640000e+002 3.110000e+002
         vertex 7.300000e+001 3.640000e+002 3.110000e+002
      endloop
   endfacet
   facet normal 0.000000e+000 1.000000e+000 0.000000e+000
      outer loop
         vertex 7.300000e+001 3.640000e+002 3.600000e+002
         vertex 7.300000e+001 3.640000e+002 3.110000e+002
         vertex 4.700000e+001 3.640000e+002 8.720000e+002
      endloop
   endfacet
   facet normal 0.000000e+000 1.000000e+000 0.000000e+000
      outer loop
         vertex 4.700000e+001 3.640000e+002 8.720000e+002
         vertex 7.300000e+001 3.640000e+002 3.110000e+002
         vertex 4.700000e+001 3.640000e+002 3.199996e-008
      endloop
   endfacet
   facet normal -1.000000e+000 0.000000e+000 0.000000e+000
      outer loop
         vertex 4.700000e+001 3.640000e+002 8.720000e+002
         vertex 4.700000e+001 3.640000e+002 3.199996e-008
         vertex 4.700000e+001 3.140000e+002 8.720000e+002
      endloop
   endfacet
   facet normal -1.000000e+000 0.000000e+000 0.000000e+000
      outer loop
         vertex 4.700000e+001 3.140000e+002 8.720000e+002
         vertex 4.700000e+001 3.640000e+002 3.199996e-008
         vertex 4.700000e+001 3.140000e+002 3.199996e-008
      endloop
   endfacet
   facet normal 1.000000e+000 0.000000e+000 0.000000e+000
      outer loop
         vertex 5.530000e+002 3.640000e+002 3.199990e-008
         vertex 5.530000e+002 3.640000e+002 8.720000e+002
         vertex 5.530000e+002 3.140000e+002 3.199990e-008
      endloop
   endfacet
   facet normal 1.000000e+000 0.000000e+000 0.000000e+000
      outer loop
         vertex 5.530000e+002 3.140000e+002 3.199990e-008
         vertex 5.530000e+002 3.640000e+002 8.720000e+002
         vertex 5.530000e+002 3.140000e+002 8.720000e+002
      endloop
   endfacet
   facet normal 0.000000e+000 0.000000e+000 -1.000000e+000
      outer loop
         vertex 4.700000e+001 -3.140000e+002 8.720000e+002
         vertex 4.700000e+001 -3.640000e+002 8.720000e+002
         vertex 0.000000e+000 -4.500000e+002 8.720000e+002
      endloop
   endfacet
   facet normal 0.000000e+000 0.000000e+000 -1.000000e+000
      outer loop
         vertex 0.000000e+000 -4.500000e+002 8.720000e+002
         vertex 4.700000e+001 -3.640000e+002 8.720000e+002
         vertex 7.300000e+001 -3.640000e+002 8.720000e+002
      endloop
   endfacet
   facet normal 0.000000e+000 0.000000e+000 -1.000000e+000
      outer loop
         vertex 5.530000e+002 3.140000e+002 8.720000e+002
         vertex 5.530000e+002 3.640000e+002 8.720000e+002
         vertex 6.000000e+002 4.500000e+002 8.720000e+002
      endloop
   endfacet
   facet normal 0.000000e+000 0.000000e+000 -1.000000e+000
      outer loop
         vertex 6.000000e+002 4.500000e+002 8.720000e+002
         vertex 5.530000e+002 3.640000e+002 8.720000e+002
         vertex 5.270000e+002 3.640000e+002 8.720000e+002
      endloop
   endfacet
   facet normal 0.000000e+000 0.000000e+000 -1.000000e+000
      outer loop
         vertex 6.000000e+002 4.500000e+002 8.720000e+002
         vertex 5.270000e+002 3.640000e+002 8.720000e+002
         vertex 0.000000e+000 4.500000e+002 8.720000e+002
      endloop
   endfacet
   facet normal 0.000000e+000 0.000000e+000 -1.000000e+000
      outer loop
         vertex 5.270000e+002 -3.640000e+002 8.720000e+002
         vertex 5.530000e+002 -3.640000e+002 8.720000e+002
         vertex 6.000000e+002 -4.500000e+002 8.720000e+002
      endloop
   endfacet
   facet normal 0.000000e+000 0.000000e+000 -1.000000e+000
      outer loop
         vertex 6.000000e+002 -4.500000e+002 8.720000e+002
         vertex 5.530000e+002 -3.640000e+002 8.720000e+002
         vertex 5.530000e+002 -3.140000e+002 8.720000e+002
      endloop
   endfacet
   facet normal 0.000000e+000 0.000000e+000 -1.000000e+000
      outer loop
         vertex 6.000000e+002 -4.500000e+002 8.720000e+002
         vertex 0.000000e+000 -4.500000e+002 8.720000e+002
         vertex 5.270000e+002 -3.640000e+002 8.720000e+002
      endloop
   endfacet
   facet normal 0.000000e+000 0.000000e+000 -1.000000e+000
      outer loop
         vertex 5.270000e+002 -3.640000e+002 8.720000e+002
         vertex 0.000000e+000 -4.500000e+002 8.720000e+002
         vertex 7.300000e+001 -3.640000e+002 8.720000e+002
      endloop
   endfacet
   facet normal 0.000000e+000 0.000000e+000 -1.000000e+000
      outer loop
         vertex 5.270000e+002 -3.640000e+002 8.720000e+002
         vertex 7.300000e+001 -3.640000e+002 8.720000e+002
         vertex 5.270000e+002 -3.140000e+002 8.720000e+002
      endloop
   endfacet
   facet normal 0.000000e+000 0.000000e+000 -1.000000e+000
      outer loop
         vertex 5.270000e+002 -3.140000e+002 8.720000e+002
         vertex 7.300000e+001 -3.640000e+002 8.720000e+002
         vertex 7.300000e+001 -3.140000e+002 8.720000e+002
      endloop
   endfacet
   facet normal 0.000000e+000 0.000000e+000 -1.000000e+000
      outer loop
         vertex 5.530000e+002 -3.140000e+002 8.720000e+002
         vertex 5.270000e+002 -3.140000e+002 8.720000e+002
         vertex 7.300000e+001 3.140000e+002 8.720000e+002
      endloop
   endfacet
   facet normal 0.000000e+000 0.000000e+000 -1.000000e+000
      outer loop
         vertex 7.300000e+001 3.140000e+002 8.720000e+002
         vertex 5.270000e+002 -3.140000e+002 8.720000e+002
         vertex 7.300000e+001 -3.140000e+002 8.720000e+002
      endloop
   endfacet
   facet normal 0.000000e+000 0.000000e+000 -1.000000e+000
      outer loop
         vertex 7.300000e+001 3.140000e+002 8.720000e+002
         vertex 7.300000e+001 -3.140000e+002 8.720000e+002
         vertex 4.700000e+001 3.140000e+002 8.720000e+002
      endloop
   endfacet
   facet normal 0.000000e+000 0.000000e+000 -1.000000e+000
      outer loop
         vertex 4.700000e+001 3.140000e+002 8.720000e+002
         vertex 7.300000e+001 -3.140000e+002 8.720000e+002
         vertex 4.700000e+001 -3.140000e+002 8.720000e+002
      endloop
   endfacet
   facet normal 0.000000e+000 0.000000e+000 -1.000000e+000
      outer loop
         vertex 4.700000e+001 3.140000e+002 8.720000e+002
         vertex 4.700000e+001 -3.140000e+002 8.720000e+002
         vertex 0.000000e+000 4.500000e+002 8.720000e+002
      endloop
   endfacet
   facet normal 0.000000e+000 0.000000e+000 -1.000000e+000
      outer loop
         vertex 0.000000e+000 4.500000e+002 8.720000e+002
         vertex 4.700000e+001 -3.140000e+002 8.720000e+002
         vertex 0.000000e+000 -4.500000e+002 8.720000e+002
      endloop
   endfacet
   facet normal 0.000000e+000 0.000000e+000 -1.000000e+000
      outer loop
         vertex 6.000000e+002 4.500000e+002 8.720000e+002
         vertex 6.000000e+002 -4.500000e+002 8.720000e+002
         vertex 5.530000e+002 3.140000e+002 8.720000e+002
      endloop
   endfacet
   facet normal 0.000000e+000 0.000000e+000 -1.000000e+000
      outer loop
         vertex 5.530000e+002 3.140000e+002 8.720000e+002
         vertex 6.000000e+002 -4.500000e+002 8.720000e+002
         vertex 5.530000e+002 -3.140000e+002 8.720000e+002
      endloop
   endfacet
   facet normal 0.000000e+000 0.000000e+000 -1.000000e+000
      outer loop
         vertex 5.530000e+002 3.140000e+002 8.720000e+002
         vertex 5.530000e+002 -3.140000e+002 8.720000e+002
         vertex 5.270000e+002 3.140000e+002 8.720000e+002
      endloop
   endfacet
   facet normal 0.000000e+000 0.000000e+000 -1.000000e+000
      outer loop
         vertex 5.270000e+002 3.140000e+002 8.720000e+002
         vertex 5.530000e+002 -3.140000e+002 8.720000e+002
         vertex 7.300000e+001 3.140000e+002 8.720000e+002
      endloop
   endfacet
   facet normal 0.000000e+000 0.000000e+000 -1.000000e+000
      outer loop
         vertex 5.270000e+002 3.140000e+002 8.720000e+002
         vertex 7.300000e+001 3.140000e+002 8.720000e+002
         vertex 5.270000e+002 3.640000e+002 8.720000e+002
      endloop
   endfacet
   facet normal 0.000000e+000 0.000000e+000 -1.000000e+000
      outer loop
         vertex 5.270000e+002 3.640000e+002 8.720000e+002
         vertex 7.300000e+001 3.140000e+002 8.720000e+002
         vertex 7.300000e+001 3.640000e+002 8.720000e+002
      endloop
   endfacet
   facet normal 0.000000e+000 0.000000e+000 -1.000000e+000
      outer loop
         vertex 5.270000e+002 3.640000e+002 8.720000e+002
         vertex 7.300000e+001 3.640000e+002 8.720000e+002
         vertex 0.000000e+000 4.500000e+002 8.720000e+002
      endloop
   endfacet
   facet normal 0.000000e+000 0.000000e+000 -1.000000e+000
      outer loop
         vertex 0.000000e+000 4.500000e+002 8.720000e+002
         vertex 7.300000e+001 3.640000e+002 8.720000e+002
         vertex 4.700000e+001 3.640000e+002 8.720000e+002
      endloop
   endfacet
   facet normal 0.000000e+000 0.000000e+000 -1.000000e+000
      outer loop
         vertex 0.000000e+000 4.500000e+002 8.720000e+002
         vertex 4.700000e+001 3.640000e+002 8.720000e+002
         vertex 4.700000e+001 3.140000e+002 8.720000e+002
      endloop
   endfacet
   facet normal 1.000000e+000 0.000000e+000 0.000000e+000
      outer loop
         vertex 6.000000e+002 4.500000e+002 8.970000e+002
         vertex 6.000000e+002 -4.500000e+002 8.970000e+002
         vertex 6.000000e+002 4.500000e+002 8.720000e+002
      endloop
   endfacet
   facet normal 1.000000e+000 0.000000e+000 0.000000e+000
      outer loop
         vertex 6.000000e+002 4.500000e+002 8.720000e+002
         vertex 6.000000e+002 -4.500000e+002 8.970000e+002
         vertex 6.000000e+002 -4.500000e+002 8.720000e+002
      endloop
   endfacet
   facet normal 0.000000e+000 1.000000e+000 0.000000e+000
      outer loop
         vertex 0.000000e+000 4.500000e+002 8.970000e+002
         vertex 6.000000e+002 4.500000e+002 8.970000e+002
         vertex 0.000000e+000 4.500000e+002 8.720000e+002
      endloop
   endfacet
   facet normal 0.000000e+000 1.000000e+000 0.000000e+000
      outer loop
         vertex 0.000000e+000 4.500000e+002 8.720000e+002
         vertex 6.000000e+002 4.500000e+002 8.970000e+002
         vertex 6.000000e+002 4.500000e+002 8.720000e+002
      endloop
   endfacet
   facet normal -1.000000e+000 0.000000e+000 0.000000e+000
      outer loop
         vertex 0.000000e+000 -4.500000e+002 8.970000e+002
         vertex 0.000000e+000 4.500000e+002 8.970000e+002
         vertex 0.000000e+000 -4.500000e+002 8.720000e+002
      endloop
   endfacet
   facet normal -1.000000e+000 0.000000e+000 0.000000e+000
      outer loop
         vertex 0.000000e+000 -4.500000e+002 8.720000e+002
         vertex 0.000000e+000 4.500000e+002 8.970000e+002
         vertex 0.000000e+000 4.500000e+002 8.720000e+002
      endloop
   endfacet
   facet normal 0.000000e+000 0.000000e+000 1.000000e+000
      outer loop
         vertex 0.000000e+000 4.500000e+002 8.970000e+002
         vertex 0.000000e+000 -4.500000e+002 8.970000e+002
         vertex 6.000000e+002 4.500000e+002 8.970000e+002
      endloop
   endfacet
   facet normal 0.000000e+000 0.000000e+000 1.000000e+000
      outer loop
         vertex 6.000000e+002 4.500000e+002 8.970000e+002
         vertex 0.000000e+000 -4.500000e+002 8.970000e+002
         vertex 6.000000e+002 -4.500000e+002 8.970000e+002
      endloop
   endfacet
   facet normal 0.000000e+000 -1.000000e+000 0.000000e+000
      outer loop
         vertex 0.000000e+000 -4.500000e+002 8.720000e+002
         vertex 6.000000e+002 -4.500000e+002 8.720000e+002
         vertex 0.000000e+000 -4.500000e+002 8.970000e+002
      endloop
   endfacet
   facet normal 0.000000e+000 -1.000000e+000 0.000000e+000
      outer loop
         vertex 0.000000e+000 -4.500000e+002 8.970000e+002
         vertex 6.000000e+002 -4.500000e+002 8.720000e+002
         vertex 6.000000e+002 -4.500000e+002 8.970000e+002
      endloop
   endfacet
   facet normal 0.000000e+000 1.000000e+000 0.000000e+000
      outer loop
         vertex 7.300000e+001 -3.140000e+002 3.110000e+002
         vertex 7.300000e+001 -3.140000e+002 3.199996e-008
         vertex 4.700000e+001 -3.140000e+002 3.199996e-008
      endloop
   endfacet
   facet normal 0.000000e+000 1.000000e+000 0.000000e+000
      outer loop
         vertex 4.700000e+001 -3.140000e+002 8.720000e+002
         vertex 7.300000e+001 -3.140000e+002 8.720000e+002
         vertex 7.300000e+001 -3.140000e+002 3.600000e+002
      endloop
   endfacet
   facet normal 0.000000e+000 1.000000e+000 0.000000e+000
      outer loop
         vertex 2.750000e+002 -3.140000e+002 3.600000e+002
         vertex 2.750000e+002 -3.140000e+002 3.110000e+002
         vertex 7.300000e+001 -3.140000e+002 3.600000e+002
      endloop
   endfacet
   facet normal 0.000000e+000 1.000000e+000 0.000000e+000
      outer loop
         vertex 7.300000e+001 -3.140000e+002 3.600000e+002
         vertex 2.750000e+002 -3.140000e+002 3.110000e+002
         vertex 7.300000e+001 -3.140000e+002 3.110000e+002
      endloop
   endfacet
   facet normal 0.000000e+000 1.000000e+000 0.000000e+000
      outer loop
         vertex 7.300000e+001 -3.140000e+002 3.600000e+002
         vertex 7.300000e+001 -3.140000e+002 3.110000e+002
         vertex 4.700000e+001 -3.140000e+002 8.720000e+002
      endloop
   endfacet
   facet normal 0.000000e+000 1.000000e+000 0.000000e+000
      outer loop
         vertex 4.700000e+001 -3.140000e+002 8.720000e+002
         vertex 7.300000e+001 -3.140000e+002 3.110000e+002
         vertex 4.700000e+001 -3.140000e+002 3.199996e-008
      endloop
   endfacet
   facet normal 0.000000e+000 -1.000000e+000 1.084202e-016
      outer loop
         vertex 4.700000e+001 3.140000e+002 8.720000e+002
         vertex 4.700000e+001 3.140000e+002 3.199996e-008
         vertex 7.300000e+001 3.140000e+002 3.110000e+002
      endloop
   endfacet
   facet normal 0.000000e+000 -1.000000e+000 1.084202e-016
      outer loop
         vertex 7.300000e+001 3.140000e+002 3.110000e+002
         vertex 4.700000e+001 3.140000e+002 3.199996e-008
         vertex 7.300000e+001 3.140000e+002 3.199996e-008
      endloop
   endfacet
   facet normal 0.000000e+000 -1.000000e+000 1.084202e-016
      outer loop
         vertex 7.300000e+001 3.140000e+002 8.720000e+002
         vertex 4.700000e+001 3.140000e+002 8.720000e+002
         vertex 7.300000e+001 3.140000e+002 3.600000e+002
      endloop
   endfacet
   facet normal 0.000000e+000 -1.000000e+000 1.084202e-016
      outer loop
         vertex 7.300000e+001 3.140000e+002 3.600000e+002
         vertex 4.700000e+001 3.140000e+002 8.720000e+002
         vertex 7.300000e+001 3.140000e+002 3.110000e+002
      endloop
   endfacet
   facet normal 0.000000e+000 -1.000000e+000 1.084202e-016
      outer loop
         vertex 7.300000e+001 3.140000e+002 3.600000e+002
         vertex 7.300000e+001 3.140000e+002 3.110000e+002
         vertex 2.750000e+002 3.140000e+002 3.600000e+002
      endloop
   endfacet
   facet normal 0.000000e+000 -1.000000e+000 1.084202e-016
      outer loop
         vertex 2.750000e+002 3.140000e+002 3.600000e+002
         vertex 7.300000e+001 3.140000e+002 3.110000e+002
         vertex 2.750000e+002 3.140000e+002 3.110000e+002
      endloop
   endfacet
   facet normal 1.000000e+000 0.000000e+000 0.000000e+000
      outer loop
         vertex 7.300000e+001 -3.640000e+002 3.600000e+002
         vertex 7.300000e+001 -3.140000e+002 3.600000e+002
         vertex 7.300000e+001 -3.640000e+002 8.720000e+002
      endloop
   endfacet
   facet normal 1.000000e+000 0.000000e+000 0.000000e+000
      outer loop
         vertex 7.300000e+001 -3.640000e+002 8.720000e+002
         vertex 7.300000e+001 -3.140000e+002 3.600000e+002
         vertex 7.300000e+001 -3.140000e+002 8.720000e+002
      endloop
   endfacet
   facet normal 1.000000e+000 0.000000e+000 0.000000e+000
      outer loop
         vertex 7.300000e+001 3.640000e+002 8.720000e+002
         vertex 7.300000e+001 3.140000e+002 8.720000e+002
         vertex 7.300000e+001 3.640000e+002 3.600000e+002
      endloop
   endfacet
   facet normal 1.000000e+000 0.000000e+000 0.000000e+000
      outer loop
         vertex 7.300000e+001 3.640000e+002 3.600000e+002
         vertex 7.300000e+001 3.140000e+002 8.720000e+002
         vertex 7.300000e+001 3.140000e+002 3.600000e+002
      endloop
   endfacet
   facet normal -1.000000e+000 0.000000e+000 0.000000e+000
      outer loop
         vertex 5.270000e+002 3.640000e+002 8.720000e+002
         vertex 5.270000e+002 3.640000e+002 3.600000e+002
         vertex 5.270000e+002 3.140000e+002 8.720000e+002
      endloop
   endfacet
   facet normal -1.000000e+000 0.000000e+000 0.000000e+000
      outer loop
         vertex 5.270000e+002 3.140000e+002 8.720000e+002
         vertex 5.270000e+002 3.640000e+002 3.600000e+002
         vertex 5.270000e+002 3.140000e+002 3.600000e+002
      endloop
   endfacet
   facet normal 0.000000e+000 1.000000e+000 0.000000e+000
      outer loop
         vertex 5.270000e+002 -3.140000e+002 3.600000e+002
         vertex 5.270000e+002 -3.140000e+002 8.720000e+002
         vertex 5.530000e+002 -3.140000e+002 8.720000e+002
      endloop
   endfacet
   facet normal 0.000000e+000 1.000000e+000 0.000000e+000
      outer loop
         vertex 5.530000e+002 -3.140000e+002 3.199996e-008
         vertex 5.270000e+002 -3.140000e+002 3.199996e-008
         vertex 5.270000e+002 -3.140000e+002 3.110000e+002
      endloop
   endfacet
   facet normal 0.000000e+000 1.000000e+000 0.000000e+000
      outer loop
         vertex 3.250000e+002 -3.140000e+002 3.110000e+002
         vertex 3.250000e+002 -3.140000e+002 3.600000e+002
         vertex 5.270000e+002 -3.140000e+002 3.110000e+002
      endloop
   endfacet
   facet normal 0.000000e+000 1.000000e+000 0.000000e+000
      outer loop
         vertex 5.270000e+002 -3.140000e+002 3.110000e+002
         vertex 3.250000e+002 -3.140000e+002 3.600000e+002
         vertex 5.270000e+002 -3.140000e+002 3.600000e+002
      endloop
   endfacet
   facet normal 0.000000e+000 1.000000e+000 0.000000e+000
      outer loop
         vertex 5.270000e+002 -3.140000e+002 3.110000e+002
         vertex 5.270000e+002 -3.140000e+002 3.600000e+002
         vertex 5.530000e+002 -3.140000e+002 3.199996e-008
      endloop
   endfacet
   facet normal 0.000000e+000 1.000000e+000 0.000000e+000
      outer loop
         vertex 5.530000e+002 -3.140000e+002 3.199996e-008
         vertex 5.270000e+002 -3.140000e+002 3.600000e+002
         vertex 5.530000e+002 -3.140000e+002 8.720000e+002
      endloop
   endfacet
   facet normal 0.000000e+000 -1.000000e+000 0.000000e+000
      outer loop
         vertex 5.530000e+002 3.140000e+002 3.199990e-008
         vertex 5.530000e+002 3.140000e+002 8.720000e+002
         vertex 5.270000e+002 3.140000e+002 3.600000e+002
      endloop
   endfacet
   facet normal 0.000000e+000 -1.000000e+000 0.000000e+000
      outer loop
         vertex 5.270000e+002 3.140000e+002 3.600000e+002
         vertex 5.530000e+002 3.140000e+002 8.720000e+002
         vertex 5.270000e+002 3.140000e+002 8.720000e+002
      endloop
   endfacet
   facet normal 0.000000e+000 -1.000000e+000 0.000000e+000
      outer loop
         vertex 5.270000e+002 3.140000e+002 3.199990e-008
         vertex 5.530000e+002 3.140000e+002 3.199990e-008
         vertex 5.270000e+002 3.140000e+002 3.110000e+002
      endloop
   endfacet
   facet normal 0.000000e+000 -1.000000e+000 0.000000e+000
      outer loop
         vertex 5.270000e+002 3.140000e+002 3.110000e+002
         vertex 5.530000e+002 3.140000e+002 3.199990e-008
         vertex 5.270000e+002 3.140000e+002 3.600000e+002
      endloop
   endfacet
   facet normal 0.000000e+000 -1.000000e+000 0.000000e+000
      outer loop
         vertex 5.270000e+002 3.140000e+002 3.110000e+002
         vertex 5.270000e+002 3.140000e+002 3.600000e+002
         vertex 3.250000e+002 3.140000e+002 3.110000e+002
      endloop
   endfacet
   facet normal 0.000000e+000 -1.000000e+000 0.000000e+000
      outer loop
         vertex 3.250000e+002 3.140000e+002 3.110000e+002
         vertex 5.270000e+002 3.140000e+002 3.600000e+002
         vertex 3.250000e+002 3.140000e+002 3.600000e+002
      endloop
   endfacet
   facet normal 0.000000e+000 0.000000e+000 1.000000e+000
      outer loop
         vertex 2.750000e+002 -3.140000e+002 3.600000e+002
         vertex 7.300000e+001 -3.140000e+002 3.600000e+002
         vertex 7.300000e+001 -3.640000e+002 3.600000e+002
      endloop
   endfacet
   facet normal 0.000000e+000 0.000000e+000 1.000000e+000
      outer loop
         vertex 5.270000e+002 -3.640000e+002 3.600000e+002
         vertex 5.270000e+002 -3.140000e+002 3.600000e+002
         vertex 3.250000e+002 -3.140000e+002 3.600000e+002
      endloop
   endfacet
   facet normal 0.000000e+000 0.000000e+000 1.000000e+000
      outer loop
         vertex 5.270000e+002 3.640000e+002 3.600000e+002
         vertex 7.300000e+001 3.640000e+002 3.600000e+002
         vertex 2.750000e+002 3.140000e+002 3.600000e+002
      endloop
   endfacet
   facet normal 0.000000e+000 0.000000e+000 1.000000e+000
      outer loop
         vertex 2.750000e+002 3.140000e+002 3.600000e+002
         vertex 7.300000e+001 3.640000e+002 3.600000e+002
         vertex 7.300000e+001 3.140000e+002 3.600000e+002
      endloop
   endfacet
   facet normal 0.000000e+000 0.000000e+000 1.000000e+000
      outer loop
         vertex 5.270000e+002 3.140000e+002 3.600000e+002
         vertex 5.270000e+002 3.640000e+002 3.600000e+002
         vertex 3.250000e+002 3.140000e+002 3.600000e+002
      endloop
   endfacet
   facet normal 0.000000e+000 0.000000e+000 1.000000e+000
      outer loop
         vertex 3.250000e+002 3.140000e+002 3.600000e+002
         vertex 5.270000e+002 3.640000e+002 3.600000e+002
         vertex 2.750000e+002 3.140000e+002 3.600000e+002
      endloop
   endfacet
   facet normal 0.000000e+000 0.000000e+000 1.000000e+000
      outer loop
         vertex 3.250000e+002 3.140000e+002 3.600000e+002
         vertex 2.750000e+002 3.140000e+002 3.600000e+002
         vertex 3.250000e+002 -3.140000e+002 3.600000e+002
      endloop
   endfacet
   facet normal 0.000000e+000 0.000000e+000 1.000000e+000
      outer loop
         vertex 3.250000e+002 -3.140000e+002 3.600000e+002
         vertex 2.750000e+002 3.140000e+002 3.600000e+002
         vertex 2.750000e+002 -3.140000e+002 3.600000e+002
      endloop
   endfacet
   facet normal 0.000000e+000 0.000000e+000 1.000000e+000
      outer loop
         vertex 3.250000e+002 -3.140000e+002 3.600000e+002
         vertex 2.750000e+002 -3.140000e+002 3.600000e+002
         vertex 5.270000e+002 -3.640000e+002 3.600000e+002
      endloop
   endfacet
   facet normal 0.000000e+000 0.000000e+000 1.000000e+000
      outer loop
         vertex 5.270000e+002 -3.640000e+002 3.600000e+002
         vertex 2.750000e+002 -3.140000e+002 3.600000e+002
         vertex 7.300000e+001 -3.640000e+002 3.600000e+002
      endloop
   endfacet
   facet normal -1.000000e+000 1.767871e-016 0.000000e+000
      outer loop
         vertex 2.750000e+002 3.140000e+002 3.110000e+002
         vertex 2.750000e+002 -3.140000e+002 3.110000e+002
         vertex 2.750000e+002 3.140000e+002 3.600000e+002
      endloop
   endfacet
   facet normal -1.000000e+000 1.767871e-016 0.000000e+000
      outer loop
         vertex 2.750000e+002 3.140000e+002 3.600000e+002
         vertex 2.750000e+002 -3.140000e+002 3.110000e+002
         vertex 2.750000e+002 -3.140000e+002 3.600000e+002
      endloop
   endfacet
   facet normal 1.000000e+000 0.000000e+000 0.000000e+000
      outer loop
         vertex 3.250000e+002 -3.140000e+002 3.110000e+002
         vertex 3.250000e+002 3.140000e+002 3.110000e+002
         vertex 3.250000e+002 -3.140000e+002 3.600000e+002
      endloop
   endfacet
   facet normal 1.000000e+000 0.000000e+000 0.000000e+000
      outer loop
         vertex 3.250000e+002 -3.140000e+002 3.600000e+002
         vertex 3.250000e+002 3.140000e+002 3.110000e+002
         vertex 3.250000e+002 3.140000e+002 3.600000e+002
      endloop
   endfacet
   facet normal 1.000000e+000 0.000000e+000 -6.002156e-017
      outer loop
         vertex 7.300000e+001 3.140000e+002 3.199996e-008
         vertex 7.300000e+001 3.640000e+002 3.199996e-008
         vertex 7.300000e+001 3.140000e+002 3.110000e+002
      endloop
   endfacet
   facet normal 1.000000e+000 0.000000e+000 -6.002156e-017
      outer loop
         vertex 7.300000e+001 3.140000e+002 3.110000e+002
         vertex 7.300000e+001 3.640000e+002 3.199996e-008
         vertex 7.300000e+001 3.640000e+002 3.110000e+002
      endloop
   endfacet
   facet normal 0.000000e+000 0.000000e+000 -1.000000e+000
      outer loop
         vertex 4.700000e+001 3.140000e+002 3.199996e-008
         vertex 4.700000e+001 3.640000e+002 3.199996e-008
         vertex 7.300000e+001 3.140000e+002 3.199996e-008
      endloop
   endfacet
   facet normal 0.000000e+000 0.000000e+000 -1.000000e+000
      outer loop
         vertex 7.300000e+001 3.140000e+002 3.199996e-008
         vertex 4.700000e+001 3.640000e+002 3.199996e-008
         vertex 7.300000e+001 3.640000e+002 3.199996e-008
      endloop
   endfacet
   facet normal -1.000000e+000 0.000000e+000 6.002156e-017
      outer loop
         vertex 5.270000e+002 3.640000e+002 3.199990e-008
         vertex 5.270000e+002 3.140000e+002 3.199990e-008
         vertex 5.270000e+002 3.640000e+002 3.110000e+002
      endloop
   endfacet
   facet normal -1.000000e+000 0.000000e+000 6.002156e-017
      outer loop
         vertex 5.270000e+002 3.640000e+002 3.110000e+002
         vertex 5.270000e+002 3.140000e+002 3.199990e-008
         vertex 5.270000e+002 3.140000e+002 3.110000e+002
      endloop
   endfacet
   facet normal 0.000000e+000 0.000000e+000 -1.000000e+000
      outer loop
         vertex 5.530000e+002 3.640000e+002 3.199990e-008
         vertex 5.530000e+002 3.140000e+002 3.199990e-008
         vertex 5.270000e+002 3.640000e+002 3.199990e-008
      endloop
   endfacet
   facet normal 0.000000e+000 0.000000e+000 -1.000000e+000
      outer loop
         vertex 5.270000e+002 3.640000e+002 3.199990e-008
         vertex 5.530000e+002 3.140000e+002 3.199990e-008
         vertex 5.270000e+002 3.140000e+002 3.199990e-008
      endloop
   endfacet
   facet normal 1.000000e+000 0.000000e+000 -6.002156e-017
      outer loop
         vertex 7.300000e+001 -3.640000e+002 3.199996e-008
         vertex 7.300000e+001 -3.140000e+002 3.199996e-008
         vertex 7.300000e+001 -3.640000e+002 3.110000e+002
      endloop
   endfacet
   facet normal 1.000000e+000 0.000000e+000 -6.002156e-017
      outer loop
         vertex 7.300000e+001 -3.640000e+002 3.110000e+002
         vertex 7.300000e+001 -3.140000e+002 3.199996e-008
         vertex 7.300000e+001 -3.140000e+002 3.110000e+002
      endloop
   endfacet
   facet normal 0.000000e+000 0.000000e+000 -1.000000e+000
      outer loop
         vertex 4.700000e+001 -3.140000e+002 3.199996e-008
         vertex 7.300000e+001 -3.140000e+002 3.199996e-008
         vertex 4.700000e+001 -3.640000e+002 3.199996e-008
      endloop
   endfacet
   facet normal 0.000000e+000 0.000000e+000 -1.000000e+000
      outer loop
         vertex 4.700000e+001 -3.640000e+002 3.199996e-008
         vertex 7.300000e+001 -3.140000e+002 3.199996e-008
         vertex 7.300000e+001 -3.640000e+002 3.199996e-008
      endloop
   endfacet
   facet normal -1.000000e+000 0.000000e+000 6.002156e-017
      outer loop
         vertex 5.270000e+002 -3.140000e+002 3.199996e-008
         vertex 5.270000e+002 -3.640000e+002 3.199996e-008
         vertex 5.270000e+002 -3.140000e+002 3.110000e+002
      endloop
   endfacet
   facet normal -1.000000e+000 0.000000e+000 6.002156e-017
      outer loop
         vertex 5.270000e+002 -3.140000e+002 3.110000e+002
         vertex 5.270000e+002 -3.640000e+002 3.199996e-008
         vertex 5.270000e+002 -3.640000e+002 3.110000e+002
      endloop
   endfacet
   facet normal 0.000000e+000 0.000000e+000 -1.000000e+000
      outer loop
         vertex 5.530000e+002 -3.140000e+002 3.199996e-008
         vertex 5.530000e+002 -3.640000e+002 3.199996e-008
         vertex 5.270000e+002 -3.140000e+002 3.199996e-008
      endloop
   endfacet
   facet normal 0.000000e+000 0.000000e+000 -1.000000e+000
      outer loop
         vertex 5.270000e+002 -3.140000e+002 3.199996e-008
         vertex 5.530000e+002 -3.640000e+002 3.199996e-008
         vertex 5.270000e+002 -3.640000e+002 3.199996e-008
      endloop
   endfacet
endsolid