solid table
   facet normal 8.823260e-024 1.000000e+000 0.000000e+000
      outer loop
         vertex -2.370000e+002 6.000000e+002 -5.850000e+002
         vertex -2.370000e+002 6.000000e+002 -9.550000e+002
         vertex -2.970000e+002 6.000000e+002 -1.015000e+003
      endloop
   endfacet
   facet normal 8.823260e-024 1.000000e+000 0.000000e+000
      outer loop
         vertex 8.430000e+002 6.000000e+002 -5.850000e+002
         vertex 9.030000e+002 6.000000e+002 -1.500000e+001
         vertex 9.030000e+002 6.000000e+002 -1.015000e+003
      endloop
   endfacet
   facet normal 8.823260e-024 1.000000e+000 0.000000e+000
      outer loop
         vertex -2.970000e+002 6.000000e+002 -1.015000e+003
         vertex -2.370000e+002 6.000000e+002 -9.550000e+002
         vertex 9.030000e+002 6.000000e+002 -1.015000e+003
      endloop
   endfacet
   facet normal 8.823260e-024 1.000000e+000 0.000000e+000
      outer loop
         vertex 9.030000e+002 6.000000e+002 -1.015000e+003
         vertex -2.370000e+002 6.000000e+002 -9.550000e+002
         vertex 8.430000e+002 6.000000e+002 -9.550000e+002
      endloop
   endfacet
   facet normal 8.823260e-024 1.000000e+000 0.000000e+000
      outer loop
         vertex 9.030000e+002 6.000000e+002 -1.015000e+003
         vertex 8.430000e+002 6.000000e+002 -9.550000e+002
         vertex 8.430000e+002 6.000000e+002 -5.850000e+002
      endloop
   endfacet
   facet normal 8.823260e-024 1.000000e+000 0.000000e+000
      outer loop
         vertex -2.970000e+002 6.000000e+002 -1.430511e-005
         vertex -2.370000e+002 6.000000e+002 -7.500000e+001
         vertex -2.370000e+002 6.000000e+002 -5.250000e+002
      endloop
   endfacet
   facet normal 8.823260e-024 1.000000e+000 0.000000e+000
      outer loop
         vertex -2.970000e+002 6.000000e+002 -1.430511e-005
         vertex 1.370000e+002 6.000000e+002 -1.430511e-005
         vertex -2.370000e+002 6.000000e+002 -7.500000e+001
      endloop
   endfacet
   facet normal 8.823260e-024 1.000000e+000 0.000000e+000
      outer loop
         vertex -2.370000e+002 6.000000e+002 -7.500000e+001
         vertex 1.370000e+002 6.000000e+002 -1.430511e-005
         vertex 1.370000e+002 6.000000e+002 -1.500000e+001
      endloop
   endfacet
   facet normal 8.823260e-024 1.000000e+000 0.000000e+000
      outer loop
         vertex -2.370000e+002 6.000000e+002 -7.500000e+001
         vertex 1.370000e+002 6.000000e+002 -1.500000e+001
         vertex 8.430000e+002 6.000000e+002 -7.500000e+001
      endloop
   endfacet
   facet normal 8.823260e-024 1.000000e+000 0.000000e+000
      outer loop
         vertex 8.430000e+002 6.000000e+002 -7.500000e+001
         vertex 1.370000e+002 6.000000e+002 -1.500000e+001
         vertex 9.030000e+002 6.000000e+002 -1.500000e+001
      endloop
   endfacet
   facet normal 8.823260e-024 1.000000e+000 0.000000e+000
      outer loop
         vertex 8.430000e+002 6.000000e+002 -7.500000e+001
         vertex 9.030000e+002 6.000000e+002 -1.500000e+001
         vertex 8.430000e+002 6.000000e+002 -5.250000e+002
      endloop
   endfacet
   facet normal 8.823260e-024 1.000000e+000 0.000000e+000
      outer loop
         vertex 8.430000e+002 6.000000e+002 -5.250000e+002
         vertex 9.030000e+002 6.000000e+002 -1.500000e+001
         vertex 8.430000e+002 6.000000e+002 -5.850000e+002
      endloop
   endfacet
   facet normal 8.823260e-024 1.000000e+000 0.000000e+000
      outer loop
         vertex 8.430000e+002 6.000000e+002 -5.250000e+002
         vertex 8.430000e+002 6.000000e+002 -5.850000e+002
         vertex -2.370000e+002 6.000000e+002 -5.250000e+002
      endloop
   endfacet
   facet normal 8.823260e-024 1.000000e+000 0.000000e+000
      outer loop
         vertex -2.370000e+002 6.000000e+002 -5.250000e+002
         vertex 8.430000e+002 6.000000e+002 -5.850000e+002
         vertex -2.370000e+002 6.000000e+002 -5.850000e+002
      endloop
   endfacet
   facet normal 8.823260e-024 1.000000e+000 0.000000e+000
      outer loop
         vertex -2.370000e+002 6.000000e+002 -5.250000e+002
         vertex -2.370000e+002 6.000000e+002 -5.850000e+002
         vertex -2.970000e+002 6.000000e+002 -1.430511e-005
      endloop
   endfacet
   facet normal 8.823260e-024 1.000000e+000 0.000000e+000
      outer loop
         vertex -2.970000e+002 6.000000e+002 -1.430511e-005
         vertex -2.370000e+002 6.000000e+002 -5.850000e+002
         vertex -2.970000e+002 6.000000e+002 -1.015000e+003
      endloop
   endfacet
   facet normal -1.000000e+000 3.700743e-016 0.000000e+000
      outer loop
         vertex -2.970000e+002 -6.000000e+002 -1.430511e-005
         vertex -2.970000e+002 6.000000e+002 -1.430511e-005
         vertex -2.970000e+002 -6.000000e+002 -1.015000e+003
      endloop
   endfacet
   facet normal -1.000000e+000 3.700743e-016 0.000000e+000
      outer loop
         vertex -2.970000e+002 -6.000000e+002 -1.015000e+003
         vertex -2.970000e+002 6.000000e+002 -1.430511e-005
         vertex -2.970000e+002 6.000000e+002 -1.015000e+003
      endloop
   endfacet
   facet normal -3.700743e-016 -1.000000e+000 0.000000e+000
      outer loop
         vertex 9.030000e+002 -6.000000e+002 -1.500000e+001
         vertex 8.430000e+002 -6.000000e+002 -5.850000e+002
         vertex 9.030000e+002 -6.000000e+002 -1.015000e+003
      endloop
   endfacet
   facet normal -3.700743e-016 -1.000000e+000 0.000000e+000
      outer loop
         vertex 9.030000e+002 -6.000000e+002 -1.015000e+003
         vertex 8.430000e+002 -6.000000e+002 -5.850000e+002
         vertex 8.430000e+002 -6.000000e+002 -9.550000e+002
      endloop
   endfacet
   facet normal -3.700743e-016 -1.000000e+000 0.000000e+000
      outer loop
         vertex 9.030000e+002 -6.000000e+002 -1.015000e+003
         vertex 8.430000e+002 -6.000000e+002 -9.550000e+002
         vertex -2.970000e+002 -6.000000e+002 -1.015000e+003
      endloop
   endfacet
   facet normal -3.700743e-016 -1.000000e+000 0.000000e+000
      outer loop
         vertex -2.970000e+002 -6.000000e+002 -1.015000e+003
         vertex 8.430000e+002 -6.000000e+002 -9.550000e+002
         vertex -2.370000e+002 -6.000000e+002 -9.550000e+002
      endloop
   endfacet
   facet normal -3.700743e-016 -1.000000e+000 0.000000e+000
      outer loop
         vertex -2.370000e+002 -6.000000e+002 -5.850000e+002
         vertex 8.430000e+002 -6.000000e+002 -5.250000e+002
         vertex -2.370000e+002 -6.000000e+002 -5.250000e+002
      endloop
   endfacet
   facet normal -3.700743e-016 -1.000000e+000 0.000000e+000
      outer loop
         vertex -2.370000e+002 -6.000000e+002 -7.500000e+001
         vertex -2.970000e+002 -6.000000e+002 -1.430511e-005
         vertex -2.370000e+002 -6.000000e+002 -5.250000e+002
      endloop
   endfacet
   facet normal -3.700743e-016 -1.000000e+000 0.000000e+000
      outer loop
         vertex -2.370000e+002 -6.000000e+002 -5.250000e+002
         vertex -2.970000e+002 -6.000000e+002 -1.430511e-005
         vertex -2.970000e+002 -6.000000e+002 -1.015000e+003
      endloop
   endfacet
   facet normal -3.700743e-016 -1.000000e+000 0.000000e+000
      outer loop
         vertex -2.370000e+002 -6.000000e+002 -5.250000e+002
         vertex -2.970000e+002 -6.000000e+002 -1.015000e+003
         vertex -2.370000e+002 -6.000000e+002 -5.850000e+002
      endloop
   endfacet
   facet normal -3.700743e-016 -1.000000e+000 0.000000e+000
      outer loop
         vertex -2.370000e+002 -6.000000e+002 -5.850000e+002
         vertex -2.970000e+002 -6.000000e+002 -1.015000e+003
         vertex -2.370000e+002 -6.000000e+002 -9.550000e+002
      endloop
   endfacet
   facet normal -3.700743e-016 -1.000000e+000 0.000000e+000
      outer loop
         vertex -2.370000e+002 -6.000000e+002 -5.850000e+002
         vertex 8.430000e+002 -6.000000e+002 -5.850000e+002
         vertex 8.430000e+002 -6.000000e+002 -5.250000e+002
      endloop
   endfacet
   facet normal -3.700743e-016 -1.000000e+000 0.000000e+000
      outer loop
         vertex 8.430000e+002 -6.000000e+002 -5.250000e+002
         vertex 8.430000e+002 -6.000000e+002 -5.850000e+002
         vertex 9.030000e+002 -6.000000e+002 -1.500000e+001
      endloop
   endfacet
   facet normal -3.700743e-016 -1.000000e+000 0.000000e+000
      outer loop
         vertex 8.430000e+002 -6.000000e+002 -5.250000e+002
         vertex 9.030000e+002 -6.000000e+002 -1.500000e+001
         vertex 8.430000e+002 -6.000000e+002 -7.500000e+001
      endloop
   endfacet
   facet normal -3.700743e-016 -1.000000e+000 0.000000e+000
      outer loop
         vertex 8.430000e+002 -6.000000e+002 -7.500000e+001
         vertex 9.030000e+002 -6.000000e+002 -1.500000e+001
         vertex 1.370000e+002 -6.000000e+002 -1.500000e+001
      endloop
   endfacet
   facet normal -3.700743e-016 -1.000000e+000 0.000000e+000
      outer loop
         vertex 8.430000e+002 -6.000000e+002 -7.500000e+001
         vertex 1.370000e+002 -6.000000e+002 -1.500000e+001
         vertex -2.370000e+002 -6.000000e+002 -7.500000e+001
      endloop
   endfacet
   facet normal -3.700743e-016 -1.000000e+000 0.000000e+000
      outer loop
         vertex -2.370000e+002 -6.000000e+002 -7.500000e+001
         vertex 1.370000e+002 -6.000000e+002 -1.500000e+001
         vertex 1.370000e+002 -6.000000e+002 -1.430511e-005
      endloop
   endfacet
   facet normal -3.700743e-016 -1.000000e+000 0.000000e+000
      outer loop
         vertex -2.370000e+002 -6.000000e+002 -7.500000e+001
         vertex 1.370000e+002 -6.000000e+002 -1.430511e-005
         vertex -2.970000e+002 -6.000000e+002 -1.430511e-005
      endloop
   endfacet
   facet normal 1.000000e+000 -3.700743e-016 0.000000e+000
      outer loop
         vertex 9.030000e+002 5.400000e+002 -7.500000e+001
         vertex 9.030000e+002 6.000000e+002 -1.500000e+001
         vertex 9.030000e+002 -5.400000e+002 -7.500000e+001
      endloop
   endfacet
   facet normal 1.000000e+000 -3.700743e-016 0.000000e+000
      outer loop
         vertex 9.030000e+002 -5.400000e+002 -7.500000e+001
         vertex 9.030000e+002 6.000000e+002 -1.500000e+001
         vertex 9.030000e+002 -6.000000e+002 -1.500000e+001
      endloop
   endfacet
   facet normal 1.000000e+000 -3.700743e-016 0.000000e+000
      outer loop
         vertex 9.030000e+002 -5.400000e+002 -7.500000e+001
         vertex 9.030000e+002 -6.000000e+002 -1.500000e+001
         vertex 9.030000e+002 -5.400000e+002 -9.550000e+002
      endloop
   endfacet
   facet normal 1.000000e+000 -3.700743e-016 0.000000e+000
      outer loop
         vertex 9.030000e+002 -5.400000e+002 -9.550000e+002
         vertex 9.030000e+002 -6.000000e+002 -1.500000e+001
         vertex 9.030000e+002 -6.000000e+002 -1.015000e+003
      endloop
   endfacet
   facet normal 1.000000e+000 -3.700743e-016 0.000000e+000
      outer loop
         vertex 9.030000e+002 -5.400000e+002 -9.550000e+002
         vertex 9.030000e+002 -6.000000e+002 -1.015000e+003
         vertex 9.030000e+002 5.400000e+002 -9.550000e+002
      endloop
   endfacet
   facet normal 1.000000e+000 -3.700743e-016 0.000000e+000
      outer loop
         vertex 9.030000e+002 5.400000e+002 -9.550000e+002
         vertex 9.030000e+002 -6.000000e+002 -1.015000e+003
         vertex 9.030000e+002 6.000000e+002 -1.015000e+003
      endloop
   endfacet
   facet normal 1.000000e+000 -3.700743e-016 0.000000e+000
      outer loop
         vertex 9.030000e+002 5.400000e+002 -9.550000e+002
         vertex 9.030000e+002 6.000000e+002 -1.015000e+003
         vertex 9.030000e+002 5.400000e+002 -7.500000e+001
      endloop
   endfacet
   facet normal 1.000000e+000 -3.700743e-016 0.000000e+000
      outer loop
         vertex 9.030000e+002 5.400000e+002 -7.500000e+001
         vertex 9.030000e+002 6.000000e+002 -1.015000e+003
         vertex 9.030000e+002 6.000000e+002 -1.500000e+001
      endloop
   endfacet
   facet normal 0.000000e+000 0.000000e+000 1.000000e+000
      outer loop
         vertex -2.970000e+002 6.000000e+002 -1.430511e-005
         vertex -2.970000e+002 -6.000000e+002 -1.430511e-005
         vertex 1.370000e+002 6.000000e+002 -1.430511e-005
      endloop
   endfacet
   facet normal 0.000000e+000 0.000000e+000 1.000000e+000
      outer loop
         vertex 1.370000e+002 6.000000e+002 -1.430511e-005
         vertex -2.970000e+002 -6.000000e+002 -1.430511e-005
         vertex 1.370000e+002 -6.000000e+002 -1.430511e-005
      endloop
   endfacet
   facet normal -0.000000e+000 0.000000e+000 -1.000000e+000
      outer loop
         vertex 9.030000e+002 -6.000000e+002 -1.015000e+003
         vertex -2.970000e+002 -6.000000e+002 -1.015000e+003
         vertex 9.030000e+002 6.000000e+002 -1.015000e+003
      endloop
   endfacet
   facet normal -0.000000e+000 0.000000e+000 -1.000000e+000
      outer loop
         vertex 9.030000e+002 6.000000e+002 -1.015000e+003
         vertex -2.970000e+002 -6.000000e+002 -1.015000e+003
         vertex -2.970000e+002 6.000000e+002 -1.015000e+003
      endloop
   endfacet
   facet normal 1.000000e+000 -2.312965e-016 0.000000e+000
      outer loop
         vertex 1.370000e+002 -6.000000e+002 -1.500000e+001
         vertex 1.370000e+002 6.000000e+002 -1.500000e+001
         vertex 1.370000e+002 -6.000000e+002 -1.430511e-005
      endloop
   endfacet
   facet normal 1.000000e+000 -2.312965e-016 0.000000e+000
      outer loop
         vertex 1.370000e+002 -6.000000e+002 -1.430511e-005
         vertex 1.370000e+002 6.000000e+002 -1.500000e+001
         vertex 1.370000e+002 6.000000e+002 -1.430511e-005
      endloop
   endfacet
   facet normal 0.000000e+000 0.000000e+000 1.000000e+000
      outer loop
         vertex 9.030000e+002 6.000000e+002 -1.500000e+001
         vertex 1.370000e+002 6.000000e+002 -1.500000e+001
         vertex 9.030000e+002 -6.000000e+002 -1.500000e+001
      endloop
   endfacet
   facet normal 0.000000e+000 0.000000e+000 1.000000e+000
      outer loop
         vertex 9.030000e+002 -6.000000e+002 -1.500000e+001
         vertex 1.370000e+002 6.000000e+002 -1.500000e+001
         vertex 1.370000e+002 -6.000000e+002 -1.500000e+001
      endloop
   endfacet
   facet normal -3.700743e-016 -1.000000e+000 -5.046468e-016
      outer loop
         vertex 8.430000e+002 5.400000e+002 -5.850000e+002
         vertex 8.430000e+002 5.400000e+002 -9.550000e+002
         vertex 9.030000e+002 5.400000e+002 -9.550000e+002
      endloop
   endfacet
   facet normal -3.700743e-016 -1.000000e+000 -5.046468e-016
      outer loop
         vertex 9.030000e+002 5.400000e+002 -7.500000e+001
         vertex 8.430000e+002 5.400000e+002 -7.500000e+001
         vertex 8.430000e+002 5.400000e+002 -5.250000e+002
      endloop
   endfacet
   facet normal -3.700743e-016 -1.000000e+000 -5.046468e-016
      outer loop
         vertex 5.030000e+002 5.400000e+002 -5.250000e+002
         vertex 5.030000e+002 5.400000e+002 -5.850000e+002
         vertex 8.430000e+002 5.400000e+002 -5.250000e+002
      endloop
   endfacet
   facet normal -3.700743e-016 -1.000000e+000 -5.046468e-016
      outer loop
         vertex 8.430000e+002 5.400000e+002 -5.250000e+002
         vertex 5.030000e+002 5.400000e+002 -5.850000e+002
         vertex 8.430000e+002 5.400000e+002 -5.850000e+002
      endloop
   endfacet
   facet normal -3.700743e-016 -1.000000e+000 -5.046468e-016
      outer loop
         vertex 8.430000e+002 5.400000e+002 -5.250000e+002
         vertex 8.430000e+002 5.400000e+002 -5.850000e+002
         vertex 9.030000e+002 5.400000e+002 -7.500000e+001
      endloop
   endfacet
   facet normal -3.700743e-016 -1.000000e+000 -5.046468e-016
      outer loop
         vertex 9.030000e+002 5.400000e+002 -7.500000e+001
         vertex 8.430000e+002 5.400000e+002 -5.850000e+002
         vertex 9.030000e+002 5.400000e+002 -9.550000e+002
      endloop
   endfacet
   facet normal -1.141292e-031 -3.083953e-016 1.000000e+000
      outer loop
         vertex 8.430000e+002 5.400000e+002 -9.550000e+002
         vertex 8.430000e+002 6.000000e+002 -9.550000e+002
         vertex -2.370000e+002 6.000000e+002 -9.550000e+002
      endloop
   endfacet
   facet normal -1.141292e-031 -3.083953e-016 1.000000e+000
      outer loop
         vertex -2.370000e+002 -6.000000e+002 -9.550000e+002
         vertex 8.430000e+002 -6.000000e+002 -9.550000e+002
         vertex 8.430000e+002 -5.400000e+002 -9.550000e+002
      endloop
   endfacet
   facet normal -1.141292e-031 -3.083953e-016 1.000000e+000
      outer loop
         vertex 9.030000e+002 -5.400000e+002 -9.550000e+002
         vertex 9.030000e+002 5.400000e+002 -9.550000e+002
         vertex 8.430000e+002 -5.400000e+002 -9.550000e+002
      endloop
   endfacet
   facet normal -1.141292e-031 -3.083953e-016 1.000000e+000
      outer loop
         vertex 8.430000e+002 -5.400000e+002 -9.550000e+002
         vertex 9.030000e+002 5.400000e+002 -9.550000e+002
         vertex 8.430000e+002 5.400000e+002 -9.550000e+002
      endloop
   endfacet
   facet normal -1.141292e-031 -3.083953e-016 1.000000e+000
      outer loop
         vertex 8.430000e+002 -5.400000e+002 -9.550000e+002
         vertex 8.430000e+002 5.400000e+002 -9.550000e+002
         vertex -2.370000e+002 -6.000000e+002 -9.550000e+002
      endloop
   endfacet
   facet normal -1.141292e-031 -3.083953e-016 1.000000e+000
      outer loop
         vertex -2.370000e+002 -6.000000e+002 -9.550000e+002
         vertex 8.430000e+002 5.400000e+002 -9.550000e+002
         vertex -2.370000e+002 6.000000e+002 -9.550000e+002
      endloop
   endfacet
   facet normal 3.700743e-016 1.000000e+000 0.000000e+000
      outer loop
         vertex 9.030000e+002 -5.400000e+002 -7.500000e+001
         vertex 9.030000e+002 -5.400000e+002 -9.550000e+002
         vertex 8.430000e+002 -5.400000e+002 -5.850000e+002
      endloop
   endfacet
   facet normal 3.700743e-016 1.000000e+000 0.000000e+000
      outer loop
         vertex 8.430000e+002 -5.400000e+002 -5.850000e+002
         vertex 9.030000e+002 -5.400000e+002 -9.550000e+002
         vertex 8.430000e+002 -5.400000e+002 -9.550000e+002
      endloop
   endfacet
   facet normal 3.700743e-016 1.000000e+000 0.000000e+000
      outer loop
         vertex 8.430000e+002 -5.400000e+002 -7.500000e+001
         vertex 9.030000e+002 -5.400000e+002 -7.500000e+001
         vertex 8.430000e+002 -5.400000e+002 -5.250000e+002
      endloop
   endfacet
   facet normal 3.700743e-016 1.000000e+000 0.000000e+000
      outer loop
         vertex 8.430000e+002 -5.400000e+002 -5.250000e+002
         vertex 9.030000e+002 -5.400000e+002 -7.500000e+001
         vertex 8.430000e+002 -5.400000e+002 -5.850000e+002
      endloop
   endfacet
   facet normal 3.700743e-016 1.000000e+000 0.000000e+000
      outer loop
         vertex 8.430000e+002 -5.400000e+002 -5.250000e+002
         vertex 8.430000e+002 -5.400000e+002 -5.850000e+002
         vertex 5.030000e+002 -5.400000e+002 -5.250000e+002
      endloop
   endfacet
   facet normal 3.700743e-016 1.000000e+000 0.000000e+000
      outer loop
         vertex 5.030000e+002 -5.400000e+002 -5.250000e+002
         vertex 8.430000e+002 -5.400000e+002 -5.850000e+002
         vertex 5.030000e+002 -5.400000e+002 -5.850000e+002
      endloop
   endfacet
   facet normal 1.521722e-031 4.111937e-016 -1.000000e+000
      outer loop
         vertex -2.370000e+002 6.000000e+002 -7.500000e+001
         vertex 8.430000e+002 6.000000e+002 -7.500000e+001
         vertex -2.370000e+002 -6.000000e+002 -7.500000e+001
      endloop
   endfacet
   facet normal 1.521722e-031 4.111937e-016 -1.000000e+000
      outer loop
         vertex -2.370000e+002 -6.000000e+002 -7.500000e+001
         vertex 8.430000e+002 6.000000e+002 -7.500000e+001
         vertex 8.430000e+002 5.400000e+002 -7.500000e+001
      endloop
   endfacet
   facet normal 1.521722e-031 4.111937e-016 -1.000000e+000
      outer loop
         vertex 8.430000e+002 -6.000000e+002 -7.500000e+001
         vertex -2.370000e+002 -6.000000e+002 -7.500000e+001
         vertex 8.430000e+002 -5.400000e+002 -7.500000e+001
      endloop
   endfacet
   facet normal 1.521722e-031 4.111937e-016 -1.000000e+000
      outer loop
         vertex 8.430000e+002 -5.400000e+002 -7.500000e+001
         vertex -2.370000e+002 -6.000000e+002 -7.500000e+001
         vertex 8.430000e+002 5.400000e+002 -7.500000e+001
      endloop
   endfacet
   facet normal 1.521722e-031 4.111937e-016 -1.000000e+000
      outer loop
         vertex 8.430000e+002 -5.400000e+002 -7.500000e+001
         vertex 8.430000e+002 5.400000e+002 -7.500000e+001
         vertex 9.030000e+002 -5.400000e+002 -7.500000e+001
      endloop
   endfacet
   facet normal 1.521722e-031 4.111937e-016 -1.000000e+000
      outer loop
         vertex 9.030000e+002 -5.400000e+002 -7.500000e+001
         vertex 8.430000e+002 5.400000e+002 -7.500000e+001
         vertex 9.030000e+002 5.400000e+002 -7.500000e+001
      endloop
   endfacet
   facet normal 1.000000e+000 -3.700743e-016 0.000000e+000
      outer loop
         vertex 5.030000e+002 5.400000e+002 -5.250000e+002
         vertex 5.030000e+002 -5.400000e+002 -5.250000e+002
         vertex 5.030000e+002 5.400000e+002 -5.850000e+002
      endloop
   endfacet
   facet normal 1.000000e+000 -3.700743e-016 0.000000e+000
      outer loop
         vertex 5.030000e+002 5.400000e+002 -5.850000e+002
         vertex 5.030000e+002 -5.400000e+002 -5.250000e+002
         vertex 5.030000e+002 -5.400000e+002 -5.850000e+002
      endloop
   endfacet
   facet normal -1.000000e+000 3.700743e-016 0.000000e+000
      outer loop
         vertex 8.430000e+002 6.000000e+002 -5.250000e+002
         vertex 8.430000e+002 5.400000e+002 -5.250000e+002
         vertex 8.430000e+002 6.000000e+002 -7.500000e+001
      endloop
   endfacet
   facet normal -1.000000e+000 3.700743e-016 0.000000e+000
      outer loop
         vertex 8.430000e+002 6.000000e+002 -7.500000e+001
         vertex 8.430000e+002 5.400000e+002 -5.250000e+002
         vertex 8.430000e+002 5.400000e+002 -7.500000e+001
      endloop
   endfacet
   facet normal -1.000000e+000 3.700743e-016 0.000000e+000
      outer loop
         vertex 8.430000e+002 -6.000000e+002 -7.500000e+001
         vertex 8.430000e+002 -5.400000e+002 -7.500000e+001
         vertex 8.430000e+002 -6.000000e+002 -5.250000e+002
      endloop
   endfacet
   facet normal -1.000000e+000 3.700743e-016 0.000000e+000
      outer loop
         vertex 8.430000e+002 -6.000000e+002 -5.250000e+002
         vertex 8.430000e+002 -5.400000e+002 -7.500000e+001
         vertex 8.430000e+002 -5.400000e+002 -5.250000e+002
      endloop
   endfacet
   facet normal -5.139921e-017 1.902153e-032 1.000000e+000
      outer loop
         vertex 8.430000e+002 -6.000000e+002 -5.250000e+002
         vertex 8.430000e+002 -5.400000e+002 -5.250000e+002
         vertex 5.030000e+002 -5.400000e+002 -5.250000e+002
      endloop
   endfacet
   facet normal -5.139921e-017 1.902153e-032 1.000000e+000
      outer loop
         vertex 8.430000e+002 5.400000e+002 -5.250000e+002
         vertex 8.430000e+002 6.000000e+002 -5.250000e+002
         vertex 5.030000e+002 5.400000e+002 -5.250000e+002
      endloop
   endfacet
   facet normal -5.139921e-017 1.902153e-032 1.000000e+000
      outer loop
         vertex 5.030000e+002 5.400000e+002 -5.250000e+002
         vertex 8.430000e+002 6.000000e+002 -5.250000e+002
         vertex -2.370000e+002 6.000000e+002 -5.250000e+002
      endloop
   endfacet
   facet normal -5.139921e-017 1.902153e-032 1.000000e+000
      outer loop
         vertex 5.030000e+002 5.400000e+002 -5.250000e+002
         vertex -2.370000e+002 6.000000e+002 -5.250000e+002
         vertex 5.030000e+002 -5.400000e+002 -5.250000e+002
      endloop
   endfacet
   facet normal -5.139921e-017 1.902153e-032 1.000000e+000
      outer loop
         vertex 5.030000e+002 -5.400000e+002 -5.250000e+002
         vertex -2.370000e+002 6.000000e+002 -5.250000e+002
         vertex -2.370000e+002 -6.000000e+002 -5.250000e+002
      endloop
   endfacet
   facet normal -5.139921e-017 1.902153e-032 1.000000e+000
      outer loop
         vertex 5.030000e+002 -5.400000e+002 -5.250000e+002
         vertex -2.370000e+002 -6.000000e+002 -5.250000e+002
         vertex 8.430000e+002 -6.000000e+002 -5.250000e+002
      endloop
   endfacet
   facet normal 1.000000e+000 -3.700743e-016 0.000000e+000
      outer loop
         vertex -2.370000e+002 6.000000e+002 -5.250000e+002
         vertex -2.370000e+002 6.000000e+002 -7.500000e+001
         vertex -2.370000e+002 -6.000000e+002 -5.250000e+002
      endloop
   endfacet
   facet normal 1.000000e+000 -3.700743e-016 0.000000e+000
      outer loop
         vertex -2.370000e+002 -6.000000e+002 -5.250000e+002
         vertex -2.370000e+002 6.000000e+002 -7.500000e+001
         vertex -2.370000e+002 -6.000000e+002 -7.500000e+001
      endloop
   endfacet
   facet normal -1.000000e+000 3.700743e-016 0.000000e+000
      outer loop
         vertex 8.430000e+002 6.000000e+002 -9.550000e+002
         vertex 8.430000e+002 5.400000e+002 -9.550000e+002
         vertex 8.430000e+002 6.000000e+002 -5.850000e+002
      endloop
   endfacet
   facet normal -1.000000e+000 3.700743e-016 0.000000e+000
      outer loop
         vertex 8.430000e+002 6.000000e+002 -5.850000e+002
         vertex 8.430000e+002 5.400000e+002 -9.550000e+002
         vertex 8.430000e+002 5.400000e+002 -5.850000e+002
      endloop
   endfacet
   facet normal -1.000000e+000 3.700743e-016 0.000000e+000
      outer loop
         vertex 8.430000e+002 -6.000000e+002 -5.850000e+002
         vertex 8.430000e+002 -5.400000e+002 -5.850000e+002
         vertex 8.430000e+002 -6.000000e+002 -9.550000e+002
      endloop
   endfacet
   facet normal -1.000000e+000 3.700743e-016 0.000000e+000
      outer loop
         vertex 8.430000e+002 -6.000000e+002 -9.550000e+002
         vertex 8.430000e+002 -5.400000e+002 -5.850000e+002
         vertex 8.430000e+002 -5.400000e+002 -9.550000e+002
      endloop
   endfacet
   facet normal -0.000000e+000 0.000000e+000 -1.000000e+000
      outer loop
         vertex 8.430000e+002 6.000000e+002 -5.850000e+002
         vertex 8.430000e+002 5.400000e+002 -5.850000e+002
         vertex 5.030000e+002 5.400000e+002 -5.850000e+002
      endloop
   endfacet
   facet normal -0.000000e+000 0.000000e+000 -1.000000e+000
      outer loop
         vertex 8.430000e+002 -5.400000e+002 -5.850000e+002
         vertex 8.430000e+002 -6.000000e+002 -5.850000e+002
         vertex 5.030000e+002 -5.400000e+002 -5.850000e+002
      endloop
   endfacet
   facet normal -0.000000e+000 0.000000e+000 -1.000000e+000
      outer loop
         vertex 5.030000e+002 -5.400000e+002 -5.850000e+002
         vertex 8.430000e+002 -6.000000e+002 -5.850000e+002
         vertex -2.370000e+002 -6.000000e+002 -5.850000e+002
      endloop
   endfacet
   facet normal -0.000000e+000 0.000000e+000 -1.000000e+000
      outer loop
         vertex 5.030000e+002 -5.400000e+002 -5.850000e+002
         vertex -2.370000e+002 -6.000000e+002 -5.850000e+002
         vertex 5.030000e+002 5.400000e+002 -5.850000e+002
      endloop
   endfacet
   facet normal -0.000000e+000 0.000000e+000 -1.000000e+000
      outer loop
         vertex 5.030000e+002 5.400000e+002 -5.850000e+002
         vertex -2.370000e+002 -6.000000e+002 -5.850000e+002
         vertex -2.370000e+002 6.000000e+002 -5.850000e+002
      endloop
   endfacet
   facet normal -0.000000e+000 0.000000e+000 -1.000000e+000
      outer loop
         vertex 5.030000e+002 5.400000e+002 -5.850000e+002
         vertex -2.370000e+002 6.000000e+002 -5.850000e+002
         vertex 8.430000e+002 6.000000e+002 -5.850000e+002
      endloop
   endfacet
   facet normal 1.000000e+000 -3.700743e-016 0.000000e+000
      outer loop
         vertex -2.370000e+002 6.000000e+002 -9.550000e+002
         vertex -2.370000e+002 6.000000e+002 -5.850000e+002
         vertex -2.370000e+002 -6.000000e+002 -9.550000e+002
      endloop
   endfacet
   facet normal 1.000000e+000 -3.700743e-016 0.000000e+000
      outer loop
         vertex -2.370000e+002 -6.000000e+002 -9.550000e+002
         vertex -2.370000e+002 6.000000e+002 -5.850000e+002
         vertex -2.370000e+002 -6.000000e+002 -5.850000e+002
      endloop
   endfacet
endsolid