solid column6060540
   facet normal 1.000000e+000 0.000000e+000 0.000000e+000
      outer loop
         vertex 3.000000e+001 2.700000e+002 6.705522e-007
         vertex 3.000000e+001 2.700000e+002 6.000000e+001
         vertex 3.000000e+001 -2.700000e+002 6.705522e-007
      endloop
   endfacet
   facet normal 1.000000e+000 0.000000e+000 0.000000e+000
      outer loop
         vertex 3.000000e+001 -2.700000e+002 6.705522e-007
         vertex 3.000000e+001 2.700000e+002 6.000000e+001
         vertex 3.000000e+001 -2.700000e+002 6.000000e+001
      endloop
   endfacet
   facet normal -0.000000e+000 0.000000e+000 -1.000000e+000
      outer loop
         vertex -3.000000e+001 2.700000e+002 6.705522e-007
         vertex 3.000000e+001 2.700000e+002 6.705522e-007
         vertex -3.000000e+001 -2.700000e+002 6.705522e-007
      endloop
   endfacet
   facet normal -0.000000e+000 0.000000e+000 -1.000000e+000
      outer loop
         vertex -3.000000e+001 -2.700000e+002 6.705522e-007
         vertex 3.000000e+001 2.700000e+002 6.705522e-007
         vertex 3.000000e+001 -2.700000e+002 6.705522e-007
      endloop
   endfacet
   facet normal -1.000000e+000 0.000000e+000 -9.251858e-016
      outer loop
         vertex -3.000000e+001 2.700000e+002 6.000000e+001
         vertex -3.000000e+001 2.700000e+002 6.705522e-007
         vertex -3.000000e+001 -2.700000e+002 6.000000e+001
      endloop
   endfacet
   facet normal -1.000000e+000 0.000000e+000 -9.251858e-016
      outer loop
         vertex -3.000000e+001 -2.700000e+002 6.000000e+001
         vertex -3.000000e+001 2.700000e+002 6.705522e-007
         vertex -3.000000e+001 -2.700000e+002 6.705522e-007
      endloop
   endfacet
   facet normal 0.000000e+000 0.000000e+000 1.000000e+000
      outer loop
         vertex 3.000000e+001 2.700000e+002 6.000000e+001
         vertex -3.000000e+001 2.700000e+002 6.000000e+001
         vertex 3.000000e+001 -2.700000e+002 6.000000e+001
      endloop
   endfacet
   facet normal 0.000000e+000 0.000000e+000 1.000000e+000
      outer loop
         vertex 3.000000e+001 -2.700000e+002 6.000000e+001
         vertex -3.000000e+001 2.700000e+002 6.000000e+001
         vertex -3.000000e+001 -2.700000e+002 6.000000e+001
      endloop
   endfacet
   facet normal -0.000000e+000 1.000000e+000 0.000000e+000
      outer loop
         vertex -3.000000e+001 2.700000e+002 6.705522e-007
         vertex -3.000000e+001 2.700000e+002 6.000000e+001
         vertex 3.000000e+001 2.700000e+002 6.705522e-007
      endloop
   endfacet
   facet normal -0.000000e+000 1.000000e+000 0.000000e+000
      outer loop
         vertex 3.000000e+001 2.700000e+002 6.705522e-007
         vertex -3.000000e+001 2.700000e+002 6.000000e+001
         vertex 3.000000e+001 2.700000e+002 6.000000e+001
      endloop
   endfacet
   facet normal 0.000000e+000 -1.000000e+000 0.000000e+000
      outer loop
         vertex -3.000000e+001 -2.700000e+002 6.000000e+001
         vertex -3.000000e+001 -2.700000e+002 6.705522e-007
         vertex 3.000000e+001 -2.700000e+002 6.000000e+001
      endloop
   endfacet
   facet normal 0.000000e+000 -1.000000e+000 0.000000e+000
      outer loop
         vertex 3.000000e+001 -2.700000e+002 6.000000e+001
         vertex -3.000000e+001 -2.700000e+002 6.705522e-007
         vertex 3.000000e+001 -2.700000e+002 6.705522e-007
      endloop
   endfacet
endsolid