solid column60602100
   facet normal -1.000000e+000 -1.156482e-016 0.000000e+000
      outer loop
         vertex -3.000000e+001 -3.000000e+001 2.100000e+003
         vertex -3.000000e+001 3.000000e+001 2.100000e+003
         vertex -3.000000e+001 -3.000000e+001 0.000000e+000
      endloop
   endfacet
   facet normal -1.000000e+000 -1.156482e-016 0.000000e+000
      outer loop
         vertex -3.000000e+001 -3.000000e+001 0.000000e+000
         vertex -3.000000e+001 3.000000e+001 2.100000e+003
         vertex -3.000000e+001 3.000000e+001 0.000000e+000
      endloop
   endfacet
   facet normal 0.000000e+000 -1.000000e+000 0.000000e+000
      outer loop
         vertex 3.000000e+001 -3.000000e+001 2.100000e+003
         vertex -3.000000e+001 -3.000000e+001 2.100000e+003
         vertex 3.000000e+001 -3.000000e+001 0.000000e+000
      endloop
   endfacet
   facet normal 0.000000e+000 -1.000000e+000 0.000000e+000
      outer loop
         vertex 3.000000e+001 -3.000000e+001 0.000000e+000
         vertex -3.000000e+001 -3.000000e+001 2.100000e+003
         vertex -3.000000e+001 -3.000000e+001 0.000000e+000
      endloop
   endfacet
   facet normal 1.000000e+000 1.156482e-016 0.000000e+000
      outer loop
         vertex 3.000000e+001 3.000000e+001 2.100000e+003
         vertex 3.000000e+001 -3.000000e+001 2.100000e+003
         vertex 3.000000e+001 3.000000e+001 0.000000e+000
      endloop
   endfacet
   facet normal 1.000000e+000 1.156482e-016 0.000000e+000
      outer loop
         vertex 3.000000e+001 3.000000e+001 0.000000e+000
         vertex 3.000000e+001 -3.000000e+001 2.100000e+003
         vertex 3.000000e+001 -3.000000e+001 0.000000e+000
      endloop
   endfacet
   facet normal 0.000000e+000 1.000000e+000 0.000000e+000
      outer loop
         vertex -3.000000e+001 3.000000e+001 2.100000e+003
         vertex 3.000000e+001 3.000000e+001 2.100000e+003
         vertex -3.000000e+001 3.000000e+001 0.000000e+000
      endloop
   endfacet
   facet normal 0.000000e+000 1.000000e+000 0.000000e+000
      outer loop
         vertex -3.000000e+001 3.000000e+001 0.000000e+000
         vertex 3.000000e+001 3.000000e+001 2.100000e+003
         vertex 3.000000e+001 3.000000e+001 0.000000e+000
      endloop
   endfacet
   facet normal 0.000000e+000 0.000000e+000 1.000000e+000
      outer loop
         vertex 3.000000e+001 -3.000000e+001 2.100000e+003
         vertex 3.000000e+001 3.000000e+001 2.100000e+003
         vertex -3.000000e+001 -3.000000e+001 2.100000e+003
      endloop
   endfacet
   facet normal 0.000000e+000 0.000000e+000 1.000000e+000
      outer loop
         vertex -3.000000e+001 -3.000000e+001 2.100000e+003
         vertex 3.000000e+001 3.000000e+001 2.100000e+003
         vertex -3.000000e+001 3.000000e+001 2.100000e+003
      endloop
   endfacet
   facet normal 0.000000e+000 0.000000e+000 -1.000000e+000
      outer loop
         vertex 3.000000e+001 3.000000e+001 0.000000e+000
         vertex 3.000000e+001 -3.000000e+001 0.000000e+000
         vertex -3.000000e+001 3.000000e+001 0.000000e+000
      endloop
   endfacet
   facet normal 0.000000e+000 0.000000e+000 -1.000000e+000
      outer loop
         vertex -3.000000e+001 3.000000e+001 0.000000e+000
         vertex 3.000000e+001 -3.000000e+001 0.000000e+000
         vertex -3.000000e+001 -3.000000e+001 0.000000e+000
      endloop
   endfacet
endsolid