solid box
   facet normal 0.000000e+000 1.000000e+000 0.000000e+000
      outer loop
         vertex -2.051852e+001 3.022222e+001 5.000000e+001
         vertex 1.948148e+001 3.022222e+001 5.000000e+001
         vertex -2.051852e+001 3.022222e+001 0.000000e+000
      endloop
   endfacet
   facet normal 0.000000e+000 1.000000e+000 0.000000e+000
      outer loop
         vertex -2.051852e+001 3.022222e+001 0.000000e+000
         vertex 1.948148e+001 3.022222e+001 5.000000e+001
         vertex 1.948148e+001 3.022222e+001 0.000000e+000
      endloop
   endfacet
   facet normal -1.000000e+000 0.000000e+000 0.000000e+000
      outer loop
         vertex -2.051852e+001 -2.977778e+001 5.000000e+001
         vertex -2.051852e+001 3.022222e+001 5.000000e+001
         vertex -2.051852e+001 -2.977778e+001 0.000000e+000
      endloop
   endfacet
   facet normal -1.000000e+000 0.000000e+000 0.000000e+000
      outer loop
         vertex -2.051852e+001 -2.977778e+001 0.000000e+000
         vertex -2.051852e+001 3.022222e+001 5.000000e+001
         vertex -2.051852e+001 3.022222e+001 0.000000e+000
      endloop
   endfacet
   facet normal 8.673617e-017 -1.000000e+000 0.000000e+000
      outer loop
         vertex 1.948148e+001 -2.977778e+001 5.000000e+001
         vertex -2.051852e+001 -2.977778e+001 5.000000e+001
         vertex 1.948148e+001 -2.977778e+001 0.000000e+000
      endloop
   endfacet
   facet normal 8.673617e-017 -1.000000e+000 0.000000e+000
      outer loop
         vertex 1.948148e+001 -2.977778e+001 0.000000e+000
         vertex -2.051852e+001 -2.977778e+001 5.000000e+001
         vertex -2.051852e+001 -2.977778e+001 0.000000e+000
      endloop
   endfacet
   facet normal 1.000000e+000 0.000000e+000 0.000000e+000
      outer loop
         vertex 1.948148e+001 3.022222e+001 5.000000e+001
         vertex 1.948148e+001 -2.977778e+001 5.000000e+001
         vertex 1.948148e+001 3.022222e+001 0.000000e+000
      endloop
   endfacet
   facet normal 1.000000e+000 0.000000e+000 0.000000e+000
      outer loop
         vertex 1.948148e+001 3.022222e+001 0.000000e+000
         vertex 1.948148e+001 -2.977778e+001 5.000000e+001
         vertex 1.948148e+001 -2.977778e+001 0.000000e+000
      endloop
   endfacet
   facet normal 0.000000e+000 0.000000e+000 1.000000e+000
      outer loop
         vertex -2.051852e+001 -2.977778e+001 5.000000e+001
         vertex 1.948148e+001 -2.977778e+001 5.000000e+001
         vertex -2.051852e+001 3.022222e+001 5.000000e+001
      endloop
   endfacet
   facet normal 0.000000e+000 0.000000e+000 1.000000e+000
      outer loop
         vertex -2.051852e+001 3.022222e+001 5.000000e+001
         vertex 1.948148e+001 -2.977778e+001 5.000000e+001
         vertex 1.948148e+001 3.022222e+001 5.000000e+001
      endloop
   endfacet
   facet normal 0.000000e+000 0.000000e+000 -1.000000e+000
      outer loop
         vertex 1.948148e+001 -2.977778e+001 0.000000e+000
         vertex -2.051852e+001 -2.977778e+001 0.000000e+000
         vertex 1.948148e+001 3.022222e+001 0.000000e+000
      endloop
   endfacet
   facet normal 0.000000e+000 0.000000e+000 -1.000000e+000
      outer loop
         vertex 1.948148e+001 3.022222e+001 0.000000e+000
         vertex -2.051852e+001 -2.977778e+001 0.000000e+000
         vertex -2.051852e+001 3.022222e+001 0.000000e+000
      endloop
   endfacet
endsolid